<svg width="85" height="85" fill="#fff" xmlns="http://www.w3.org/2000/svg" viewBox="0 0 80 80"><g filter="url(#apple-music_color_svg__filter0_i)"><path d="M18.095 0h43.81C71.905 0 80 8.095 80 18.095v43.81C80 71.905 71.905 80 61.905 80h-43.81C8.095 80 0 71.905 0 61.905v-43.81C0 8.095 8.095 0 18.095 0z" fill="url(#apple-music_color_svg__applemusic)"></path><path fill-rule="evenodd" clip-rule="evenodd" d="M56.762 13.01c-.194.018-1.912.322-2.12.365l-23.787 4.8-.01.002c-.62.13-1.106.351-1.482.667-.454.38-.705.918-.8 1.545-.02.133-.054.405-.054.805v29.773c0 .696-.055 1.372-.527 1.947-.471.576-1.053.75-1.736.887l-1.554.314c-1.965.395-3.244.664-4.402 1.114-1.107.429-1.936.976-2.597 1.67-1.31 1.371-1.84 3.232-1.658 4.975a6.229 6.229 0 001.974 3.961 5.993 5.993 0 002.888 1.481c1.185.238 2.448.156 4.293-.218.983-.198 1.903-.507 2.779-1.025a6.982 6.982 0 002.19-2.025 7.397 7.397 0 001.165-2.746c.213-1.016.264-1.934.264-2.948V32.532c0-1.383.392-1.747 1.508-2.019 0 0 19.773-3.988 20.695-4.168 1.288-.247 1.895.12 1.895 1.47v17.627c0 .698-.007 1.405-.483 1.983-.471.576-1.054.75-1.736.887l-1.554.314c-1.965.395-3.244.664-4.402 1.114-1.107.429-1.937.975-2.597 1.67a6.306 6.306 0 00-1.705 4.975 6.289 6.289 0 002.02 3.961 5.993 5.993 0 002.889 1.468c1.185.238 2.447.153 4.293-.218.982-.198 1.903-.494 2.779-1.012a6.982 6.982 0 002.19-2.025 7.4 7.4 0 001.165-2.746c.213-1.016.222-1.934.222-2.948V15.113c.004-1.37-.718-2.214-2.005-2.103z" fill="#fff"></path></g><defs><linearGradient id="apple-music_color_svg__applemusic" x1="40" y1="79.692" x2="40" y2="1.724" gradientUnits="userSpaceOnUse"><stop stop-color="#FA233B"></stop><stop offset="1" stop-color="#FB5C74"></stop></linearGradient><filter id="apple-music_color_svg__filter0_i" x="0" y="-1" width="80" height="81" filterUnits="userSpaceOnUse" color-interpolation-filters="sRGB"><feFlood flood-opacity="0" result="BackgroundImageFix"></feFlood><feBlend in="SourceGraphic" in2="BackgroundImageFix" result="shape"></feBlend><feColorMatrix in="SourceAlpha" values="0 0 0 0 0 0 0 0 0 0 0 0 0 0 0 0 0 0 127 0" result="hardAlpha"></feColorMatrix><feOffset dy="-1"></feOffset><feGaussianBlur stdDeviation="0.5"></feGaussianBlur><feComposite in2="hardAlpha" operator="arithmetic" k2="-1" k3="1"></feComposite><feColorMatrix values="0 0 0 0 0 0 0 0 0 0 0 0 0 0 0 0 0 0 0.12 0"></feColorMatrix><feBlend in2="shape" result="effect1_innerShadow"></feBlend></filter></defs></svg>