<svg width="85" height="85" fill="#fff" xmlns="http://www.w3.org/2000/svg" viewBox="0 0 80 80"><g filter="url(#phone_color_svg__filter0_i)"><path d="M18.095 0h43.81C71.905 0 80 8.095 80 18.095v43.81C80 71.905 71.905 80 61.905 80h-43.81C8.095 80 0 71.905 0 61.905v-43.81C0 8.095 8.095 0 18.095 0z" fill="url(#phone_color_svg__call)"></path><path d="M14.682 21.93c-.188-2.542.847-4.33 3.012-5.648.94-.564 1.882-1.223 2.823-1.788 1.694-1.035 3.294-.753 4.424.941 1.976 2.918 3.859 5.742 5.835 8.66 1.412 2.07 1.318 3.482-.282 5.364-.47.565-.942 1.13-1.318 1.694-1.318 1.694-1.412 3.2-.188 4.988 1.506 2.07 3.2 4.047 4.894 6.024 2.635 3.012 5.741 5.553 9.035 8 1.788 1.317 3.483 1.223 5.27.094.566-.377 1.224-.847 1.789-1.224 1.694-1.317 3.012-1.411 4.894-.282 2.918 1.882 5.93 3.67 8.847 5.553 2.165 1.318 2.541 2.73 1.412 4.988-.659 1.224-1.412 2.353-2.259 3.483-1.223 1.788-3.012 2.352-5.082 2.352-2.541.095-4.894-.564-7.153-1.505-6.306-2.542-11.859-6.306-16.847-10.824C27.67 47.341 22.4 41.13 18.447 33.882c-1.694-3.2-3.106-6.494-3.577-10.07-.094-.659-.094-1.318-.188-1.883z" fill="#fff"></path></g><defs><linearGradient id="phone_color_svg__call" x1="40" y1="0" x2="40" y2="80" gradientUnits="userSpaceOnUse"><stop stop-color="#8BFB6B"></stop><stop offset="1" stop-color="#19DB1C"></stop></linearGradient><filter id="phone_color_svg__filter0_i" x="0" y="-1" width="80" height="81" filterUnits="userSpaceOnUse" color-interpolation-filters="sRGB"><feFlood flood-opacity="0" result="BackgroundImageFix"></feFlood><feBlend in="SourceGraphic" in2="BackgroundImageFix" result="shape"></feBlend><feColorMatrix in="SourceAlpha" values="0 0 0 0 0 0 0 0 0 0 0 0 0 0 0 0 0 0 127 0" result="hardAlpha"></feColorMatrix><feOffset dy="-1"></feOffset><feGaussianBlur stdDeviation="0.5"></feGaussianBlur><feComposite in2="hardAlpha" operator="arithmetic" k2="-1" k3="1"></feComposite><feColorMatrix values="0 0 0 0 0 0 0 0 0 0 0 0 0 0 0 0 0 0 0.12 0"></feColorMatrix><feBlend in2="shape" result="effect1_innerShadow"></feBlend></filter></defs></svg>