<svg width="85" height="85" fill="#fff" xmlns="http://www.w3.org/2000/svg" viewBox="0 0 80 80"><g filter="url(#discord_color_svg__filter0_i_3180_247987)"><path d="M18.095 0h43.81C71.905 0 80 8.095 80 18.095v43.81C80 71.905 71.905 80 61.905 80h-43.81C8.095 80 0 71.905 0 61.905v-43.81C0 8.095 8.095 0 18.095 0z" fill="#5865F2"></path><path d="M60.792 21.096a49.855 49.855 0 00-12.212-3.749.186.186 0 00-.197.092 33.963 33.963 0 00-1.52 3.092 46.148 46.148 0 00-13.717 0 31.157 31.157 0 00-1.545-3.092.193.193 0 00-.196-.092 49.717 49.717 0 00-12.213 3.75.174.174 0 00-.08.067c-7.778 11.502-9.91 22.72-8.864 33.8a.203.203 0 00.078.139c5.132 3.73 10.103 5.994 14.982 7.495a.195.195 0 00.21-.068 35.141 35.141 0 003.066-4.934.187.187 0 00-.104-.262 32.916 32.916 0 01-4.68-2.208.19.19 0 01-.02-.316c.315-.233.63-.476.93-.72a.187.187 0 01.194-.027c9.82 4.437 20.45 4.437 30.153 0a.186.186 0 01.197.024c.3.245.615.49.932.723a.19.19 0 01-.017.316 30.893 30.893 0 01-4.683 2.206.189.189 0 00-.101.264 39.446 39.446 0 003.062 4.931.191.191 0 00.21.071c4.903-1.5 9.874-3.765 15.007-7.495a.19.19 0 00.078-.137c1.25-12.81-2.096-23.936-8.872-33.8a.151.151 0 00-.078-.07zM30.05 48.217c-2.956 0-5.392-2.686-5.392-5.985 0-3.298 2.389-5.985 5.392-5.985 3.027 0 5.44 2.71 5.392 5.985 0 3.3-2.389 5.985-5.392 5.985zm19.937 0c-2.956 0-5.392-2.686-5.392-5.985 0-3.298 2.388-5.985 5.392-5.985 3.027 0 5.44 2.71 5.392 5.985 0 3.3-2.365 5.985-5.392 5.985z" fill="#fff"></path></g><defs><filter id="discord_color_svg__filter0_i_3180_247987" x="0" y="-1" width="80" height="81" filterUnits="userSpaceOnUse" color-interpolation-filters="sRGB"><feFlood flood-opacity="0" result="BackgroundImageFix"></feFlood><feBlend in="SourceGraphic" in2="BackgroundImageFix" result="shape"></feBlend><feColorMatrix in="SourceAlpha" values="0 0 0 0 0 0 0 0 0 0 0 0 0 0 0 0 0 0 127 0" result="hardAlpha"></feColorMatrix><feOffset dy="-1"></feOffset><feGaussianBlur stdDeviation="0.5"></feGaussianBlur><feComposite in2="hardAlpha" operator="arithmetic" k2="-1" k3="1"></feComposite><feColorMatrix values="0 0 0 0 0 0 0 0 0 0 0 0 0 0 0 0 0 0 0.12 0"></feColorMatrix><feBlend in2="shape" result="effect1_innerShadow_3180_247987"></feBlend></filter></defs></svg>