<svg width="85" height="85" fill="#fff" xmlns="http://www.w3.org/2000/svg" viewBox="0 0 80 80"><g clip-path="url(#facebook_color_svg__facebook0clip)" filter="url(#facebook_color_svg__facebook0_i)"><path d="M18.095 0h43.81C71.905 0 80 8.095 80 18.095v43.81C80 71.905 71.905 80 61.905 80h-43.81C8.095 80 0 71.905 0 61.905v-43.81C0 8.095 8.095 0 18.095 0z" fill="url(#facebook_color_svg__facebook0_linear)"></path><path d="M55.924 51.531l1.797-11.734H46.482v-7.615c0-3.21 1.57-6.34 6.604-6.34h5.11v-9.99s-4.637-.793-9.071-.793c-9.257 0-15.306 5.62-15.306 15.794v8.944h-10.29V51.53h10.29v28.86l6.331.001h6.332v-28.86h9.442z" fill="#fff"></path></g><defs><linearGradient id="facebook_color_svg__facebook0_linear" x1="40" y1="0" x2="40" y2="80" gradientUnits="userSpaceOnUse"><stop stop-color="#1BAFFF"></stop><stop offset="1" stop-color="#0062E0"></stop></linearGradient><clipPath id="facebook_color_svg__facebook0clip"><path fill="#fff" d="M0 0h80v80H0z"></path></clipPath><filter id="facebook_color_svg__facebook0_i" x="0" y="-1" width="80" height="81" filterUnits="userSpaceOnUse" color-interpolation-filters="sRGB"><feFlood flood-opacity="0" result="BackgroundImageFix"></feFlood><feBlend in="SourceGraphic" in2="BackgroundImageFix" result="shape"></feBlend><feColorMatrix in="SourceAlpha" values="0 0 0 0 0 0 0 0 0 0 0 0 0 0 0 0 0 0 127 0" result="hardAlpha"></feColorMatrix><feOffset dy="-1"></feOffset><feGaussianBlur stdDeviation="0.5"></feGaussianBlur><feComposite in2="hardAlpha" operator="arithmetic" k2="-1" k3="1"></feComposite><feColorMatrix values="0 0 0 0 0 0 0 0 0 0 0 0 0 0 0 0 0 0 0.12 0"></feColorMatrix><feBlend in2="shape" result="effect1_innerShadow"></feBlend></filter></defs></svg>