<svg width="85" height="85" fill="#fff" xmlns="http://www.w3.org/2000/svg" viewBox="0 0 80 80"><g filter="url(#pinterest_color_svg__filter0_i)"><path d="M18.095 0h43.81C71.905 0 80 8.095 80 18.095v43.81C80 71.905 71.905 80 61.905 80h-43.81C8.095 80 0 71.905 0 61.905v-43.81C0 8.095 8.095 0 18.095 0z" fill="#FFFEFF"></path><path d="M18.095.5h43.81C71.629.5 79.5 8.371 79.5 18.095v43.81c0 9.724-7.871 17.595-17.595 17.595h-43.81C8.371 79.5.5 71.629.5 61.905v-43.81C.5 8.371 8.371.5 18.095.5z" stroke="#000" stroke-opacity="0.05"></path><path d="M40.027 7.53c-17.948 0-32.498 14.526-32.498 32.443 0 13.752 8.56 25.502 20.649 30.228-.294-2.564-.535-6.516.107-9.32.588-2.536 3.798-16.128 3.798-16.128s-.963-1.95-.963-4.806c0-4.513 2.621-7.878 5.884-7.878 2.782 0 4.12 2.083 4.12 4.566 0 2.778-1.766 6.943-2.702 10.815-.776 3.231 1.631 5.875 4.814 5.875 5.778 0 10.217-6.089 10.217-14.847 0-7.77-5.59-13.191-13.587-13.191-9.254 0-14.684 6.916-14.684 14.072 0 2.777 1.07 5.768 2.407 7.397.268.32.295.614.214.934-.24 1.015-.802 3.231-.91 3.685-.133.588-.48.721-1.096.428-4.065-1.896-6.606-7.798-6.606-12.577 0-10.227 7.436-19.627 21.478-19.627 11.26 0 20.033 8.01 20.033 18.745 0 11.189-7.061 20.188-16.85 20.188-3.29 0-6.393-1.71-7.436-3.739l-2.033 7.718c-.722 2.83-2.701 6.355-4.039 8.518a32.694 32.694 0 009.63 1.442c17.946 0 32.496-14.527 32.496-32.444.054-17.971-14.496-32.498-32.443-32.498z" fill="#E60023"></path></g><defs><filter id="pinterest_color_svg__filter0_i" x="0" y="-1" width="80" height="81" filterUnits="userSpaceOnUse" color-interpolation-filters="sRGB"><feFlood flood-opacity="0" result="BackgroundImageFix"></feFlood><feBlend in="SourceGraphic" in2="BackgroundImageFix" result="shape"></feBlend><feColorMatrix in="SourceAlpha" values="0 0 0 0 0 0 0 0 0 0 0 0 0 0 0 0 0 0 127 0" result="hardAlpha"></feColorMatrix><feOffset dy="-1"></feOffset><feGaussianBlur stdDeviation="0.5"></feGaussianBlur><feComposite in2="hardAlpha" operator="arithmetic" k2="-1" k3="1"></feComposite><feColorMatrix values="0 0 0 0 0 0 0 0 0 0 0 0 0 0 0 0 0 0 0.12 0"></feColorMatrix><feBlend in2="shape" result="effect1_innerShadow"></feBlend></filter></defs></svg>