<svg width="85" height="85" fill="#fff" xmlns="http://www.w3.org/2000/svg" viewBox="0 0 80 80"><g filter="url(#messages_color_svg__filter1_i)"><path d="M18.095 0h43.81C71.905 0 80 8.095 80 18.095v43.81C80 71.905 71.905 80 61.905 80h-43.81C8.095 80 0 71.905 0 61.905v-43.81C0 8.095 8.095 0 18.095 0z" fill="url(#messages_color_svg__paint1_linear)"></path><path fill-rule="evenodd" clip-rule="evenodd" d="M40 61.186c16.016 0 29-10.563 29-23.593S56.016 14 40 14 11 24.563 11 37.593c0 8.655 5.728 16.22 14.267 20.326.107 1.874-.626 5.675-4.436 7.2 2.415.16 8.154-1.42 11.617-4.74a35.33 35.33 0 007.552.807z" fill="#fff"></path></g><defs><linearGradient id="messages_color_svg__paint1_linear" x1="40" y1="0" x2="40" y2="80" gradientUnits="userSpaceOnUse"><stop stop-color="#8BFB6B"></stop><stop offset="1" stop-color="#19DB1C"></stop></linearGradient><filter id="messages_color_svg__filter1_i" x="0" y="-1" width="80" height="81" filterUnits="userSpaceOnUse" color-interpolation-filters="sRGB"><feFlood flood-opacity="0" result="BackgroundImageFix"></feFlood><feBlend in="SourceGraphic" in2="BackgroundImageFix" result="shape"></feBlend><feColorMatrix in="SourceAlpha" values="0 0 0 0 0 0 0 0 0 0 0 0 0 0 0 0 0 0 127 0" result="hardAlpha"></feColorMatrix><feOffset dy="-1"></feOffset><feGaussianBlur stdDeviation="0.5"></feGaussianBlur><feComposite in2="hardAlpha" operator="arithmetic" k2="-1" k3="1"></feComposite><feColorMatrix values="0 0 0 0 0 0 0 0 0 0 0 0 0 0 0 0 0 0 0.12 0"></feColorMatrix><feBlend in2="shape" result="effect1_innerShadow"></feBlend></filter></defs></svg>