<svg width="85" height="85" fill="#fff" xmlns="http://www.w3.org/2000/svg" viewBox="0 0 80 80"><g filter="url(#snapchat_color_svg__filter0_i)"><path d="M18.095 0h43.81C71.905 0 80 8.095 80 18.095v43.81C80 71.905 71.905 80 61.905 80h-43.81C8.095 80 0 71.905 0 61.905v-43.81C0 8.095 8.095 0 18.095 0z" fill="#FFFC00"></path><path d="M66.974 53.714c-.236-.78-1.364-1.33-1.364-1.33-.106-.056-.202-.107-.28-.146-1.881-.91-3.548-2.004-4.952-3.245-1.128-1-2.093-2.1-2.868-3.267-.949-1.426-1.392-2.616-1.583-3.261-.107-.422-.09-.59 0-.809.073-.185.292-.36.393-.443a72.832 72.832 0 012.285-1.516c.544-.354 1.01-.657 1.285-.848.881-.617 1.488-1.246 1.841-1.925.46-.876.517-1.841.157-2.79-.482-1.28-1.678-2.043-3.2-2.043-.336 0-.684.039-1.032.112-.87.19-1.695.5-2.386.77a.072.072 0 01-.101-.074c.073-1.712.157-4.014-.034-6.197-.168-1.976-.578-3.643-1.24-5.097-.668-1.46-1.538-2.538-2.218-3.318-.645-.74-1.785-1.835-3.502-2.818-2.414-1.38-5.165-2.082-8.174-2.082-3.003 0-5.748.701-8.167 2.082-1.82 1.039-2.981 2.212-3.509 2.818-.68.78-1.55 1.858-2.217 3.318-.668 1.454-1.072 3.115-1.24 5.097-.192 2.195-.113 4.31-.034 6.197 0 .056-.051.096-.107.073-.69-.27-1.516-.578-2.386-.769a4.972 4.972 0 00-1.033-.112c-1.515 0-2.711.763-3.2 2.043-.359.949-.303 1.914.158 2.79.359.68.96 1.308 1.841 1.925.27.191.741.494 1.285.848.612.399 1.606 1.044 2.246 1.488.078.056.348.258.432.471.09.225.107.393-.011.842-.197.651-.64 1.83-1.572 3.228a16.62 16.62 0 01-2.868 3.267c-1.404 1.24-3.071 2.335-4.951 3.245-.09.045-.197.095-.31.162 0 0-1.122.573-1.335 1.314-.315 1.095.522 2.122 1.37 2.672 1.392.898 3.087 1.381 4.07 1.645.274.073.521.14.746.208.14.044.494.18.645.376.191.247.214.55.281.892.107.578.348 1.291 1.061 1.785.786.54 1.78.578 3.042.629 1.32.05 2.959.112 4.84.735.87.287 1.661.775 2.57 1.336 1.909 1.174 4.284 2.633 8.336 2.633 4.059 0 6.45-1.465 8.37-2.644.91-.556 1.69-1.038 2.543-1.32 1.88-.622 3.52-.684 4.839-.734 1.263-.051 2.257-.085 3.043-.63.763-.527.982-1.313 1.083-1.902.056-.292.09-.556.258-.77.146-.184.472-.313.623-.364.23-.073.489-.14.775-.219.982-.264 2.217-.573 3.716-1.42 1.808-1.028 1.931-2.285 1.74-2.908z" fill="#fff"></path><path d="M68.534 53.108c-.398-1.09-1.162-1.668-2.026-2.15a4.912 4.912 0 00-.438-.23c-.258-.135-.522-.264-.786-.4-2.7-1.43-4.81-3.238-6.27-5.377a12.6 12.6 0 01-1.078-1.909c-.123-.359-.118-.56-.028-.746.067-.14.247-.286.348-.36.466-.308.943-.617 1.269-.825.578-.376 1.038-.673 1.33-.875 1.112-.775 1.886-1.6 2.369-2.52.685-1.297.769-2.78.241-4.172-.73-1.93-2.56-3.132-4.771-3.132-.46 0-.926.05-1.387.152l-.359.084a40.238 40.238 0 00-.13-4.087c-.414-4.827-2.104-7.36-3.867-9.374-.735-.842-2.015-2.072-3.935-3.172-2.677-1.538-5.709-2.313-9.015-2.313-3.295 0-6.327.775-9.004 2.307-1.931 1.1-3.211 2.336-3.94 3.172-1.764 2.015-3.453 4.547-3.869 9.375a41.961 41.961 0 00-.129 4.086l-.359-.084a6.517 6.517 0 00-1.387-.152c-2.211 0-4.041 1.202-4.771 3.133-.528 1.392-.444 2.874.241 4.17.483.921 1.263 1.746 2.37 2.521.297.208.751.505 1.33.876.314.202.769.5 1.218.797.067.045.308.224.393.393.095.19.095.398-.045.78a12.39 12.39 0 01-1.061 1.87c-1.432 2.093-3.48 3.867-6.09 5.282-1.387.735-2.824 1.224-3.43 2.874-.461 1.246-.158 2.666 1.004 3.862.382.41.865.775 1.47 1.111 1.427.786 2.64 1.174 3.593 1.438.169.05.556.174.725.325.426.37.365.932.931 1.752.343.51.736.858 1.062 1.083 1.184.82 2.52.87 3.935.926 1.274.05 2.722.107 4.373.651.684.225 1.397.663 2.217 1.168 1.976 1.218 4.687 2.88 9.217 2.88 4.536 0 7.259-1.673 9.251-2.891.82-.5 1.527-.938 2.19-1.157 1.65-.544 3.098-.6 4.373-.65 1.414-.057 2.745-.108 3.935-.927.37-.258.842-.68 1.212-1.32.404-.69.399-1.178.78-1.51.158-.134.5-.252.685-.308.96-.264 2.19-.651 3.643-1.454.646-.354 1.146-.74 1.544-1.184l.017-.017c1.083-1.18 1.358-2.554.91-3.773zm-4.025 2.16c-2.458 1.36-4.092 1.213-5.36 2.027-1.078.696-.444 2.195-1.224 2.734-.966.668-3.812-.045-7.489 1.168-3.03 1.004-4.968 3.884-10.43 3.884-5.473 0-7.353-2.868-10.43-3.884-3.676-1.213-6.528-.5-7.488-1.168-.78-.539-.146-2.038-1.224-2.734-1.268-.82-2.902-.673-5.36-2.026-1.567-.865-.68-1.398-.158-1.65 8.903-4.306 10.318-10.964 10.385-11.463.079-.596.163-1.067-.494-1.679-.634-.59-3.458-2.335-4.238-2.88-1.297-.903-1.864-1.807-1.443-2.919.292-.769 1.01-1.055 1.769-1.055.235 0 .477.028.707.079 1.42.308 2.801 1.021 3.598 1.212.113.028.208.04.292.04.427 0 .573-.214.545-.702-.09-1.555-.315-4.587-.068-7.421.337-3.896 1.595-5.827 3.088-7.54.718-.819 4.086-4.378 10.525-4.378 6.456 0 9.807 3.56 10.525 4.379 1.494 1.706 2.751 3.637 3.088 7.539.247 2.835.033 5.866-.068 7.42-.033.512.124.702.545.702.084 0 .185-.01.292-.039.797-.19 2.178-.904 3.598-1.212.23-.05.472-.079.708-.079.757 0 1.476.292 1.768 1.055.42 1.112-.152 2.016-1.443 2.92-.78.544-3.604 2.29-4.238 2.88-.657.605-.573 1.077-.494 1.678.062.5 1.482 7.157 10.385 11.462.505.253 1.398.786-.169 1.65z" fill="#000"></path></g><defs><filter id="snapchat_color_svg__filter0_i" x="0" y="-1" width="80" height="81" filterUnits="userSpaceOnUse" color-interpolation-filters="sRGB"><feFlood flood-opacity="0" result="BackgroundImageFix"></feFlood><feBlend in="SourceGraphic" in2="BackgroundImageFix" result="shape"></feBlend><feColorMatrix in="SourceAlpha" values="0 0 0 0 0 0 0 0 0 0 0 0 0 0 0 0 0 0 127 0" result="hardAlpha"></feColorMatrix><feOffset dy="-1"></feOffset><feGaussianBlur stdDeviation="0.5"></feGaussianBlur><feComposite in2="hardAlpha" operator="arithmetic" k2="-1" k3="1"></feComposite><feColorMatrix values="0 0 0 0 0 0 0 0 0 0 0 0 0 0 0 0 0 0 0.12 0"></feColorMatrix><feBlend in2="shape" result="effect1_innerShadow"></feBlend></filter></defs></svg>