<svg width="85" height="85" fill="#fff" xmlns="http://www.w3.org/2000/svg" viewBox="0 0 80 80"><g filter="url(#spotify_color_svg__filter0_i)"><path d="M18.095 0h43.81C71.905 0 80 8.095 80 18.095v43.81C80 71.905 71.905 80 61.905 80h-43.81C8.095 80 0 71.905 0 61.905v-43.81C0 8.095 8.095 0 18.095 0z" fill="#151418"></path><path d="M40 11c-16.016 0-29 12.984-29 29 0 16.017 12.984 29 29 29 16.017 0 29-12.983 29-29 0-16.015-12.983-28.999-29-28.999V11zm13.299 41.827a1.807 1.807 0 01-2.486.599c-6.81-4.16-15.38-5.101-25.475-2.795a1.808 1.808 0 01-.805-3.525C35.58 44.58 45.056 45.668 52.7 50.34a1.808 1.808 0 01.599 2.487zm3.55-7.898a2.26 2.26 0 01-3.11.746c-7.795-4.792-19.678-6.18-28.898-3.38a2.264 2.264 0 01-2.822-1.507 2.264 2.264 0 011.508-2.82c10.532-3.196 23.625-1.648 32.577 3.853a2.26 2.26 0 01.745 3.108zm.304-8.223c-9.346-5.551-24.767-6.062-33.69-3.353a2.712 2.712 0 11-1.575-5.191c10.244-3.11 27.273-2.51 38.034 3.88a2.71 2.71 0 01.948 3.716 2.71 2.71 0 01-3.715.948h-.002z" fill="#1ED760"></path></g><defs><filter id="spotify_color_svg__filter0_i" x="0" y="-1" width="80" height="81" filterUnits="userSpaceOnUse" color-interpolation-filters="sRGB"><feFlood flood-opacity="0" result="BackgroundImageFix"></feFlood><feBlend in="SourceGraphic" in2="BackgroundImageFix" result="shape"></feBlend><feColorMatrix in="SourceAlpha" values="0 0 0 0 0 0 0 0 0 0 0 0 0 0 0 0 0 0 127 0" result="hardAlpha"></feColorMatrix><feOffset dy="-1"></feOffset><feGaussianBlur stdDeviation="0.5"></feGaussianBlur><feComposite in2="hardAlpha" operator="arithmetic" k2="-1" k3="1"></feComposite><feColorMatrix values="0 0 0 0 0 0 0 0 0 0 0 0 0 0 0 0 0 0 0.12 0"></feColorMatrix><feBlend in2="shape" result="effect1_innerShadow"></feBlend></filter></defs></svg>