<svg width="85" height="85" fill="#fff" xmlns="http://www.w3.org/2000/svg" viewBox="0 0 80 80"><g filter="url(#tiktok_color_svg__filter0_i)"><path d="M18.095 0h43.81C71.905 0 80 8.095 80 18.095v43.81C80 71.905 71.905 80 61.905 80h-43.81C8.095 80 0 71.905 0 61.905v-43.81C0 8.095 8.095 0 18.095 0z" fill="#020002"></path><path d="M52.306 32.358a22.837 22.837 0 0013.34 4.276v-9.588c-.941 0-1.88-.098-2.801-.293V34.3c-4.974 0-9.58-1.584-13.34-4.276V49.59c0 9.788-7.922 17.723-17.694 17.723a17.589 17.589 0 01-9.85-2.998 17.626 17.626 0 0012.65 5.332c9.773 0 17.696-7.934 17.696-17.723V32.358zm3.456-9.673a13.374 13.374 0 01-3.456-7.824v-1.233h-2.655a13.424 13.424 0 006.111 9.057zm-27.62 34.12a8.082 8.082 0 01-1.651-4.909c0-4.477 3.623-8.106 8.093-8.106a8.1 8.1 0 012.455.38v-9.803a17.829 17.829 0 00-2.8-.161v7.63a8.088 8.088 0 00-2.456-.38c-4.47 0-8.094 3.63-8.094 8.106a8.107 8.107 0 004.453 7.242z" fill="#FF004F"></path><path d="M49.505 30.024a22.841 22.841 0 0013.34 4.275v-7.547a13.385 13.385 0 01-7.083-4.067 13.424 13.424 0 01-6.11-9.057h-6.974v38.296c-.016 4.464-3.633 8.08-8.094 8.08a8.078 8.078 0 01-6.443-3.2 8.108 8.108 0 01-4.452-7.241c0-4.477 3.623-8.107 8.093-8.107.857 0 1.682.133 2.457.38v-7.63c-9.6.199-17.321 8.055-17.321 17.718 0 4.824 1.923 9.196 5.043 12.391a17.59 17.59 0 009.85 2.998c9.772 0 17.694-7.935 17.694-17.723V30.024z" fill="#FFFEFF"></path><path d="M62.845 26.752v-2.04a13.322 13.322 0 01-7.082-2.027 13.373 13.373 0 007.082 4.067zM49.652 13.628a13.738 13.738 0 01-.147-1.1v-1.234h-9.629V49.59c-.015 4.464-3.632 8.08-8.093 8.08a8.05 8.05 0 01-3.642-.866 8.078 8.078 0 006.443 3.2c4.46 0 8.079-3.615 8.094-8.08V13.628h6.974zM34.24 34.206v-2.173a17.825 17.825 0 00-2.428-.165c-9.773 0-17.695 7.935-17.695 17.722 0 6.136 3.114 11.544 7.845 14.725a17.677 17.677 0 01-5.043-12.391c0-9.663 7.72-17.52 17.32-17.718z" fill="#00F2EA"></path></g><defs><filter id="tiktok_color_svg__filter0_i" x="0" y="-1" width="80" height="81" filterUnits="userSpaceOnUse" color-interpolation-filters="sRGB"><feFlood flood-opacity="0" result="BackgroundImageFix"></feFlood><feBlend in="SourceGraphic" in2="BackgroundImageFix" result="shape"></feBlend><feColorMatrix in="SourceAlpha" values="0 0 0 0 0 0 0 0 0 0 0 0 0 0 0 0 0 0 127 0" result="hardAlpha"></feColorMatrix><feOffset dy="-1"></feOffset><feGaussianBlur stdDeviation="0.5"></feGaussianBlur><feComposite in2="hardAlpha" operator="arithmetic" k2="-1" k3="1"></feComposite><feColorMatrix values="0 0 0 0 0 0 0 0 0 0 0 0 0 0 0 0 0 0 0.12 0"></feColorMatrix><feBlend in2="shape" result="effect1_innerShadow"></feBlend></filter></defs></svg>