<svg width="85" height="85" fill="#fff" xmlns="http://www.w3.org/2000/svg" viewBox="0 0 80 80"><g filter="url(#twitch_color_svg__filter0_i)"><path d="M18.095 0h43.81C71.905 0 80 8.095 80 18.095v43.81C80 71.905 71.905 80 61.905 80h-43.81C8.095 80 0 71.905 0 61.905v-43.81C0 8.095 8.095 0 18.095 0z" fill="#9146FF"></path><path d="M59.216 37.647l-7.687 7.529h-7.686l-6.725 6.588v-6.588H28.47V16.941h30.745v20.706z" fill="#fff"></path><path d="M26.55 13.177l-9.609 9.411v33.883h11.53v9.411l9.608-9.411h7.686l17.294-16.942V13.176H26.55zm32.666 24.47l-7.686 7.53h-7.687l-6.725 6.588v-6.589H28.47V16.941h30.745v20.706z" fill="#010000"></path><path d="M53.453 23.53h-3.844v11.294h3.843V23.53zM42.882 23.53H39.04v11.294h3.843V23.53z" fill="#010000"></path></g><defs><filter id="twitch_color_svg__filter0_i" x="0" y="-1" width="80" height="81" filterUnits="userSpaceOnUse" color-interpolation-filters="sRGB"><feFlood flood-opacity="0" result="BackgroundImageFix"></feFlood><feBlend in="SourceGraphic" in2="BackgroundImageFix" result="shape"></feBlend><feColorMatrix in="SourceAlpha" values="0 0 0 0 0 0 0 0 0 0 0 0 0 0 0 0 0 0 127 0" result="hardAlpha"></feColorMatrix><feOffset dy="-1"></feOffset><feGaussianBlur stdDeviation="0.5"></feGaussianBlur><feComposite in2="hardAlpha" operator="arithmetic" k2="-1" k3="1"></feComposite><feColorMatrix values="0 0 0 0 0 0 0 0 0 0 0 0 0 0 0 0 0 0 0.12 0"></feColorMatrix><feBlend in2="shape" result="effect1_innerShadow"></feBlend></filter></defs></svg>