<svg width="85" height="85" fill="#fff" xmlns="http://www.w3.org/2000/svg" viewBox="0 0 80 80"><g filter="url(#whatsapp_color_svg__filter0_i)"><path d="M18.095 0h43.81C71.905 0 80 8.095 80 18.095v43.81C80 71.905 71.905 80 61.905 80h-43.81C8.095 80 0 71.905 0 61.905v-43.81C0 8.095 8.095 0 18.095 0z" fill="url(#whatsapp_color_svg__whatsapp)"></path><path d="M11.766 68.235c.188-.752.376-1.317.47-1.882 1.13-3.953 2.165-7.906 3.2-11.859.094-.376.094-.847-.094-1.13-1.976-3.481-3.012-7.246-3.388-11.293-.377-4.33.282-8.565 1.882-12.612 2.541-6.212 6.777-10.918 12.612-14.212 3.765-2.07 7.812-3.2 12.141-3.388 7.435-.282 13.93 1.882 19.577 6.776 5.176 4.518 8.47 10.165 9.411 16.942 1.224 8.376-.847 15.811-6.305 22.306-4.612 5.458-10.542 8.752-17.695 9.694-5.553.752-10.917 0-16-2.636-.847-.376-1.506-.47-2.447-.282-4.14 1.13-8.282 2.165-12.423 3.294-.094.094-.47.188-.941.282zm27.576-51.858c-.753.094-2.259.188-3.67.376-5.271 1.035-9.789 3.576-13.365 7.624-4.141 4.8-6.118 10.447-5.741 16.753.188 4.14 1.506 7.905 3.764 11.388.189.282.189.659.094 1.035-.564 2.165-1.129 4.33-1.788 6.494-.094.377-.188.659-.282 1.036 0 .094.282.376.376.376.189 0 .47-.094.753-.188 2.26-.565 4.612-1.224 6.87-1.788.471-.095 1.036 0 1.413.188 4.517 2.635 9.411 3.764 14.588 3.2 6.4-.66 11.67-3.577 15.623-8.47 3.86-4.8 5.647-10.26 5.177-16.472-.377-5.364-2.353-10.07-6.024-14.023-4.423-4.894-10.259-7.435-17.788-7.53z" fill="#fff"></path><path d="M47.343 53.176c-2.165.095-4.047-.753-5.93-1.505-3.294-1.224-6.117-3.294-8.564-5.836-2.165-2.164-4.141-4.517-5.553-7.247-1.412-2.447-1.977-5.082-1.035-7.812.47-1.317 1.317-2.447 2.352-3.388 1.036-.847 2.26-.659 3.483-.376.282.094.47.376.659.659.847 1.882 1.694 3.764 2.447 5.74.188.377.094.942-.188 1.318-.377.66-.942 1.318-1.506 1.883-.66.753-.753 1.035-.189 1.882 2.26 3.859 5.46 6.588 9.6 8.188.565.189.942.094 1.318-.282.659-.847 1.412-1.694 2.07-2.447.565-.753.848-.847 1.789-.47.753.282 1.412.658 2.165.94 1.035.471 2.07 1.036 3.105 1.506.66.283.848.847.848 1.506-.283 3.2-2.824 5.553-6.118 5.647-.282.094-.565.094-.753.094z" fill="#fff"></path></g><defs><linearGradient id="whatsapp_color_svg__whatsapp" x1="40" y1="0" x2="40" y2="80" gradientUnits="userSpaceOnUse"><stop stop-color="#00FF6A"></stop><stop offset="1" stop-color="#00D31D"></stop></linearGradient><filter id="whatsapp_color_svg__filter0_i" x="0" y="-1" width="80" height="81" filterUnits="userSpaceOnUse" color-interpolation-filters="sRGB"><feFlood flood-opacity="0" result="BackgroundImageFix"></feFlood><feBlend in="SourceGraphic" in2="BackgroundImageFix" result="shape"></feBlend><feColorMatrix in="SourceAlpha" values="0 0 0 0 0 0 0 0 0 0 0 0 0 0 0 0 0 0 127 0" result="hardAlpha"></feColorMatrix><feOffset dy="-1"></feOffset><feGaussianBlur stdDeviation="0.5"></feGaussianBlur><feComposite in2="hardAlpha" operator="arithmetic" k2="-1" k3="1"></feComposite><feColorMatrix values="0 0 0 0 0 0 0 0 0 0 0 0 0 0 0 0 0 0 0.12 0"></feColorMatrix><feBlend in2="shape" result="effect1_innerShadow"></feBlend></filter></defs></svg>