<svg width="85" height="85" fill="#fff" xmlns="http://www.w3.org/2000/svg" viewBox="0 0 80 80"><g filter="url(#youtube_color_svg__filter0_i)"><path d="M18.095 0h43.81C71.905 0 80 8.095 80 18.095v43.81C80 71.905 71.905 80 61.905 80h-43.81C8.095 80 0 71.905 0 61.905v-43.81C0 8.095 8.095 0 18.095 0z" fill="#FFFEFF"></path><path d="M18.095.5h43.81C71.629.5 79.5 8.371 79.5 18.095v43.81c0 9.724-7.871 17.595-17.595 17.595h-43.81C8.371 79.5.5 71.629.5 61.905v-43.81C.5 8.371 8.371.5 18.095.5z" stroke="#000" stroke-opacity="0.05"></path><path fill-rule="evenodd" clip-rule="evenodd" d="M65.41 18.352c2.78.76 4.974 2.984 5.723 5.805 1.39 5.154 1.337 15.897 1.337 15.897s0 10.689-1.337 15.843c-.749 2.821-2.942 5.046-5.724 5.805C60.327 63.06 40 63.06 40 63.06s-20.273 0-25.409-1.41c-2.781-.76-4.974-2.985-5.723-5.806C7.529 50.743 7.529 40 7.529 40s0-10.689 1.338-15.843c.749-2.821 2.995-5.1 5.723-5.86C19.672 16.942 40 16.942 40 16.942s20.327 0 25.41 1.41zM33.527 30.126L50.43 40l-16.903 9.874v-19.75z" fill="red"></path></g><defs><filter id="youtube_color_svg__filter0_i" x="0" y="-1" width="80" height="81" filterUnits="userSpaceOnUse" color-interpolation-filters="sRGB"><feFlood flood-opacity="0" result="BackgroundImageFix"></feFlood><feBlend in="SourceGraphic" in2="BackgroundImageFix" result="shape"></feBlend><feColorMatrix in="SourceAlpha" values="0 0 0 0 0 0 0 0 0 0 0 0 0 0 0 0 0 0 127 0" result="hardAlpha"></feColorMatrix><feOffset dy="-1"></feOffset><feGaussianBlur stdDeviation="0.5"></feGaussianBlur><feComposite in2="hardAlpha" operator="arithmetic" k2="-1" k3="1"></feComposite><feColorMatrix values="0 0 0 0 0 0 0 0 0 0 0 0 0 0 0 0 0 0 0.12 0"></feColorMatrix><feBlend in2="shape" result="effect1_innerShadow"></feBlend></filter></defs></svg>