<svg id="b4c36f13-7c1e-444b-8d7b-adda575813a3" data-name="Warstwa 1" xmlns="http://www.w3.org/2000/svg" xmlns:xlink="http://www.w3.org/1999/xlink" viewBox="0 0 672 360"><defs><clipPath id="ad13406c-0b31-4569-84bb-99b734026a75"><rect id="ba06a7be-84ee-46df-9f18-67468cbb9359" data-name="Rectangle" x="400.1201" y="60.834" width="170.5732" height="259.4975" rx="19.3617" transform="translate(220.2935 639.6444) rotate(-80.8798)" fill="none"/></clipPath><clipPath id="ee604800-4c75-4897-ae14-293d65cb9a59"><path d="M213.322,165.7527v56.47l113.7011-42.7538a19.3616,19.3616,0,0,0,11.3081-24.9373l-3.061-8.1405H232.6836A19.3617,19.3617,0,0,0,213.322,165.7527Z" fill="none"/></clipPath></defs><rect x="-1" width="672" height="360" fill="none"/><path d="M540.3056,311.9608,393.4587,23.8284a26.6385,26.6385,0,0,0-40.2281-8.8217L87.2512,224.74c-17.9379,14.1447-10.9184,42.8264,11.5243,47.0884l412.8262,78.3987C533.355,354.3586,550.36,331.6885,540.3056,311.9608Z" fill="#783bff" fill-rule="evenodd" opacity="0.15"/><g id="b4dccfac-3841-4752-a891-df019f145040" data-name="default"><rect id="fea5bfbf-6f3d-4031-a73a-e336201cd824" data-name="Rectangle" x="400.1201" y="60.834" width="170.5732" height="259.4975" rx="19.3617" transform="translate(220.2935 639.6444) rotate(-80.8798)" fill="#ffa172"/></g><g opacity="0.56"><g clip-path="url(#ad13406c-0b31-4569-84bb-99b734026a75)"><path d="M509.0645,350.481l-11.4264-3.3225c9.92-34.1144,34.0087-65.761,73.6431-96.7473,13.2086-10.3267,27.1757-19.9815,40.6812-29.3182,18.7845-12.9847,38.2081-26.412,55.5-41.6268,3.82-3.3616,8.1588-8.1155,7.1373-11.6736-.51-1.7791-2.4615-3.6173-5.9657-5.6224-29.4619-16.8522-66.5069-5.2441-89.2763,9.8154-21.9348,14.51-39.8319,35.1666-57.1394,55.1428-4.2818,4.942-8.7093,10.052-13.1411,15.0045-38.9391,43.5263-65.4789,54.6083-84.25,59.4013-16.8924,4.3124-31.02,1.9122-39.7769-6.7664-11.4032-11.2986-11.4233-30.8807-.056-52.38A193.1642,193.1642,0,0,1,458.38,165.8213c5.3562-3.1292,10.8887-6.0122,16.24-8.7991,7.34-3.8243,14.9306-7.7785,21.8608-12.29,13.4072-8.7272,22.3743-18.5679,26.6528-29.2495,4.9579-12.3815,2.8154-26.51-5.21-34.3585-12.2409-11.9726-33.1246-7.8-41.5338-5.4523-38.244,10.6827-68.0926,40.5344-94.6525,71.2028-12.2789,14.1784-30.8637,35.6082-55.5379,34.4176-26.3866-1.27-43.9171-29.4292-43.1469-53.9078.7881-25.1115,15.6236-47.2893,28.46-63.8046A410.0813,410.0813,0,0,1,379.6373-5.3837c32.2192-25.6788,60.256-38.655,88.2336-40.8376l.9254,11.8638c-25.496,1.9882-51.4706,14.152-81.7428,38.2789a398.1706,398.1706,0,0,0-66.1456,66.9611c-22.3309,28.7309-25.6048,45.4881-25.963,56.8764-.7426,23.605,16.1762,40.8947,31.8252,41.6469,17.4206.8557,32.2868-14.5176,45.9719-30.3208,27.7758-32.0745,59.17-63.3439,100.4459-74.8728,21.9823-6.139,41.3183-3.0753,53.0553,8.4039,11.55,11.2965,14.7394,30.3007,7.9359,47.2914-5.2071,13-15.7071,24.7079-31.2082,34.798-7.4119,4.8247-15.2623,8.9142-22.8528,12.8695-5.2251,2.7224-10.6277,5.5378-15.7356,8.5212a183.803,183.803,0,0,0-68.868,71.8524c-13.0174,24.6213-4.8892,35.5914-2.0886,38.3666,7.9349,7.862,22.5422,5.1987,28.4583,3.6891,32.6227-8.329,58.9946-34.199,78.3252-55.8052,4.3684-4.8828,8.7642-9.9569,13.0153-14.863,17.8327-20.5825,36.2728-41.8655,59.5682-57.2747a120.6568,120.6568,0,0,1,49.8078-19.1944c19.1606-2.6062,37.1221.4976,51.9418,8.9745,4.0377,2.31,9.62,6.1357,11.494,12.6666,3.3162,11.5458-7.2439,20.8382-10.7143,23.8913-17.8137,15.6744-37.5278,29.3024-56.5923,42.4825-13.366,9.2385-27.1852,18.7919-40.1192,28.9041C541.0111,289.1813,518.2629,318.8482,509.0645,350.481Z" fill="#ffc1a3"/></g></g><path id="e4cfb251-7a40-4e1f-b12b-c64852b1f575" data-name="JohnSmith" d="M396.1806,117.5909a3.4988,3.4988,0,0,0,4.34-3.2053l1.0534-6.6323-1.6659-.2646L398.904,113.81c-.2794,1.7593-.921,2.5831-2.4934,2.3334-1.4324-.2275-1.7708-1.1112-1.253-2.8646l-1.6349.0436C392.7438,115.5127,393.6429,117.1878,396.1806,117.5909Zm9.8394,1.5627c2.4288.3858,4.1165-.8944,4.52-3.4321s-.805-4.2779-3.2338-4.6636-4.1164.8945-4.5195,3.4322S403.5913,118.7679,406.02,119.1536Zm.2077-1.3077c-1.4011-.2226-2.0394-1.3295-1.76-3.0888s1.2291-2.614,2.63-2.3914,2.055,1.3319,1.7756,3.0912S407.6289,118.0684,406.2277,117.8459Zm7.4925,2.3711.6527-4.11c.2844-1.79,1.4805-2.2867,2.5081-2.1235.95.1508,1.5842.7783,1.3394,2.32l-.717,4.5149,1.6658.2646.8012-5.0442a2.98,2.98,0,0,0-5.2117-2.36l.7542-4.7484-1.6659-.2646-1.7927,11.2873Zm9.637,1.5306.6553-4.1257c.2843-1.79,1.478-2.2712,2.5055-2.108.95.1508,1.5843.7783,1.34,2.32l-.7171,4.5149,1.6659.2646.8011-5.0442a2.73,2.73,0,0,0-2.467-3.3607,2.8055,2.8055,0,0,0-2.8635,1.0456l.13-1.32-1.479-.2349-1.2364,7.7844Zm-28.8776,13.99c2.4287.3857,4.28-.5173,4.5718-2.3545.2621-1.65-.6139-2.6672-3.2929-3.5875-1.9359-.6746-2.505-1.2119-2.3739-2.0371.1384-.8718,1.0363-1.4,2.5-1.1672a2.78,2.78,0,0,1,2.5517,2.2249l1.4415-.9362a4.5334,4.5334,0,0,0-3.7788-2.739c-2.5065-.3981-4.2237.7657-4.5006,2.5094-.26,1.6347.6475,2.6566,3.3813,3.6335,1.8737.6647,2.43,1.184,2.3135,1.9157-.1509.95-1.1355,1.32-2.5989,1.0876a3.3527,3.3527,0,0,1-2.9515-2.32l-1.3531.9822C390.9807,134.3521,392.2377,135.3817,394.48,135.7378Zm7.8869,1.093.6578-4.1413c.2769-1.7437,1.4755-2.2556,2.41-2.1072.9186.1458,1.522.7684,1.3193,2.0451l-.7592,4.78,1.6659.2645.6726-4.2347a2.1094,2.1094,0,0,1,2.3948-2.0138c.9186.1459,1.522.7684,1.3192,2.0451l-.7591,4.78,1.6659.2645.8011-5.0442a2.7344,2.7344,0,0,0-2.4047-3.3508,2.9883,2.9883,0,0,0-2.9407,1.1291,2.7644,2.7644,0,0,0-2.3683-1.9723,2.84,2.84,0,0,0-2.752,1.0473l.1273-1.3045-1.479-.2349-1.2363,7.7843Zm15.3937-6.8766a.989.989,0,0,0,1.271-.8675.978.978,0,0,0-.9422-1.2031.99.99,0,0,0-1.2841.85A1.0013,1.0013,0,0,0,417.76,129.9542Zm-.619,9.2232,1.2364-7.7844-1.6659-.2645-1.2363,7.7843Zm5.5489,1.0409a3.2451,3.2451,0,0,0,2.177-.3406l-.1964-1.2762a1.7984,1.7984,0,0,1-1.34.298,1.0224,1.0224,0,0,1-.961-1.2859l.6577-4.1413,2.7246.4327.2077-1.3078-2.7246-.4327.3635-2.2886-1.74.2025-.2893,1.8215-1.479-.2349-.2078,1.3078,1.4791.2349-.7023,4.4215A2.1106,2.1106,0,0,0,422.69,140.2183Zm5.3181.685.6528-4.11c.2844-1.79,1.4805-2.2868,2.508-2.1236.95.1509,1.5843.7784,1.34,2.32l-.7171,4.5149,1.6659.2646.8011-5.0443a2.98,2.98,0,0,0-5.2116-2.36l.7541-4.7485-1.6658-.2646-1.7927,11.2874Z"/><path id="a3640a68-0dad-4cf9-a9ad-8bd0a007bedb" data-name="Founder,CEO" d="M388.7042,149.8038l.36-2.2674,2.3153.3677.118-.7425-2.3154-.3677.2422-1.525,2.9541.4692.1166-.7345-3.8083-.6049-.8369,5.2694Zm5.6479.9789a2.1038,2.1038,0,1,0-1.6583-2.3916A1.8906,1.8906,0,0,0,394.3521,150.7827Zm.1065-.6706c-.7185-.1142-1.0458-.6818-.9025-1.584s.63-1.34,1.3489-1.2264,1.0538.6831.9105,1.5852S395.1772,150.2262,394.4586,150.1121Zm4.38,1.3832a1.4917,1.4917,0,0,0,1.5286-.502l-.0628.653.7584.12.6341-3.992-.8543-.1357-.3424,2.1557a1.0892,1.0892,0,0,1-1.31,1.036c-.503-.08-.7868-.3542-.6689-1.0967l.3817-2.4031-.8543-.1357-.4172,2.6267A1.3237,1.3237,0,0,0,398.8391,151.4953Zm4.4039.6176.336-2.1157c.1458-.9182.758-1.1647,1.2849-1.081.487.0773.8124.3991.6869,1.19l-.3677,2.3154.8543.1356.4108-2.5868a1.4,1.4,0,0,0-1.2651-1.7234,1.4388,1.4388,0,0,0-1.4685.5362l.0666-.677-.7585-.12-.634,3.992Zm5.624.9751a1.4757,1.4757,0,0,0,1.4761-.5841l-.0663.7262.7505.1192.9194-5.7884-.8543-.1357-.388,2.4431a1.4289,1.4289,0,0,0-1.17-.9307c-1.0858-.1724-1.8954.493-2.1034,1.8023C407.2242,152.0413,407.7811,152.9156,408.867,153.088Zm.3006-.6562c-.6866-.109-1.0193-.6939-.8811-1.5642s.6345-1.3153,1.3211-1.2062c.6707.1065,1.0219.678.89,1.5083l-.0153.0958C410.3493,152.1038,409.8383,152.5383,409.1676,152.4318Zm4.9448,1.4893a1.7447,1.7447,0,0,0,1.8637-.6535l-.6637-.4083a.9684.9684,0,0,1-1.0922.3832,1.1173,1.1173,0,0,1-.9865-1.2617l2.9222.4641a3.3684,3.3684,0,0,0,.1016-.4341,1.7867,1.7867,0,0,0-1.5416-2.25,1.8615,1.8615,0,0,0-2.2778,1.7664A1.8949,1.8949,0,0,0,414.1124,153.9211Zm1.381-2.2526-2.1477-.3411a1.0874,1.0874,0,0,1,2.1477.3411Zm2.3522,2.7637.3361-2.1158a1.0816,1.0816,0,0,1,1.1962-1.0378,1.0659,1.0659,0,0,1,.4865.1837l.26-.7609a1.0673,1.0673,0,0,0-.4265-.15,1.26,1.26,0,0,0-1.379.5914l.033-.7233-.7265-.1154-.634,3.992Zm2.4206,1.6122a1.5537,1.5537,0,0,0,1.1691-1.2795c.0773-.487-.1051-.8843-.5442-.954a.5908.5908,0,0,0-.7007.4944.5273.5273,0,0,0,.4222.64.3018.3018,0,0,0,.2337-.0283l.0374.0223a1.28,1.28,0,0,1-.9769.6879Zm7.1-.0183a2.1862,2.1862,0,0,0,2.4142-1.1309l-.7712-.4008a1.3311,1.3311,0,0,1-1.5171.79c-.998-.1585-1.4814-.98-1.2836-2.2256.1991-1.2535.96-1.8693,1.942-1.7134a1.2021,1.2021,0,0,1,1.1089,1.1093l.8634-.2312a2.0689,2.0689,0,0,0-1.9023-1.6282,2.76,2.76,0,0,0-.8543,5.43ZM434.58,157.09l.1167-.7345-3.0738-.4882.2485-1.5649,2.3153.3678.1142-.7186-2.3154-.3677.241-1.517,2.962.47.1167-.7346-3.8164-.6061-.8369,5.2694Zm3.3246.61a2.76,2.76,0,1,0-2.0518-3.1089A2.4519,2.4519,0,0,0,437.9046,157.7Zm.118-.7425c-.99-.1572-1.4747-.9709-1.2756-2.2244s.912-1.8769,1.902-1.72c.998.1585,1.4827.9722,1.2836,2.2257S439.0206,157.1159,438.0226,156.9574Z"/><path id="b3b02dad-55df-4553-acf0-e9d17b4ecdc5" data-name="johnsmith@gmail.com" d="M394.5492,197.11a.5268.5268,0,0,0,.6519-.4449.58.58,0,0,0-1.1417-.1813A.5291.5291,0,0,0,394.5492,197.11Zm-1.8993,6.2384a1.2323,1.2323,0,0,0,1.5262-1.1572l.69-4.3433-.8543-.1357-.6771,4.2634c-.085.535-.3377.6831-.681.6286a.9819.9819,0,0,1-.5793-.3212l-.2607.6625A1.49,1.49,0,0,0,392.65,203.3488Zm4.6511-.9392a2.1038,2.1038,0,1,0-1.6583-2.3916A1.8906,1.8906,0,0,0,397.301,202.41Zm.1065-.6707c-.7186-.1141-1.0459-.6818-.9026-1.584s.63-1.34,1.349-1.2263,1.0538.683.9105,1.5852S398.1261,201.853,397.4075,201.7389Zm3.8423,1.216.3347-2.1078c.1458-.9181.7593-1.1727,1.2862-1.089.487.0773.8124.3991.6869,1.19l-.3677,2.3153.8542.1357.4109-2.5868a1.5281,1.5281,0,0,0-2.6727-1.21l.3868-2.4351-.8543-.1357-.9193,5.7884Zm4.942.7849.3361-2.1158c.1458-.9181.7579-1.1647,1.2849-1.081.487.0774.8124.3992.6869,1.19l-.3678,2.3153.8543.1357.4109-2.5868a1.4,1.4,0,0,0-1.2652-1.7234,1.4387,1.4387,0,0,0-1.4684.5362l.0665-.677-.7584-.12-.634,3.992Zm5.52.9586c1.1018.175,1.82-.2266,1.932-.9292.1053-.6626-.2474-1.0706-1.3561-1.46-.729-.2549-.9364-.4434-.8908-.7308.0394-.2475.4127-.4338.9077-.3552a1.04,1.04,0,0,1,.9541.8473l.6778-.3507a1.6291,1.6291,0,0,0-1.5333-1.1685c-1.07-.17-1.77.3245-1.8732.9712-.1065.6707.2541,1.08,1.4082,1.4924.6731.2461.8818.4266.8425.6741-.0432.2714-.3635.4333-.93.3433a1.2407,1.2407,0,0,1-1.1323-.8592l-.6534.4037A1.96,1.96,0,0,0,411.712,204.6984Zm3.6454.4971.3373-2.1237c.142-.8942.7567-1.1568,1.2358-1.0807.471.0748.7805.3941.6765,1.0488l-.3893,2.4511.8543.1356.3449-2.1716a1.0817,1.0817,0,0,1,1.2281-1.0327c.4711.0748.7805.394.6765,1.0487l-.3893,2.4511.8543.1357.4109-2.5868a1.4024,1.4024,0,0,0-1.2332-1.7184,1.5327,1.5327,0,0,0-1.5081.5791,1.4175,1.4175,0,0,0-1.2145-1.0115,1.4564,1.4564,0,0,0-1.4113.5371l.0653-.669-.7584-.12-.6341,3.992Zm7.8942-3.5265a.5071.5071,0,0,0,.6518-.4448.5016.5016,0,0,0-.4832-.617.5079.5079,0,0,0-.6585.4356A.5136.5136,0,0,0,423.2516,201.669Zm-.3174,4.73.634-3.992-.8543-.1357-.634,3.992Zm2.8456.5338a1.664,1.664,0,0,0,1.1164-.1747l-.1007-.6544a.9222.9222,0,0,1-.6873.1528.5244.5244,0,0,1-.4928-.66l.3373-2.1237,1.3972.2219.1065-.6707-1.3972-.2219.1864-1.1736-.8923.1038-.1484.9342-.7584-.12-.1065.6706.7584.12-.36,2.2674A1.0824,1.0824,0,0,0,425.78,206.9327Zm2.7272.3513.3348-2.1078c.1458-.9181.7592-1.1727,1.2862-1.089.487.0774.8124.3992.6869,1.19l-.3678,2.3153.8543.1357.4109-2.5868a1.5281,1.5281,0,0,0-2.6727-1.21l.3868-2.4351-.8543-.1357-.9194,5.7884Zm6.9741,2.6792a3.1009,3.1009,0,0,0,2.0923-.29l-.232-.4462a2.6067,2.6067,0,0,1-1.7712.2262,2.673,2.673,0,0,1-2.2934-3.2373,2.7915,2.7915,0,0,1,3.427-2.5088,2.5053,2.5053,0,0,1,2.2805,3.1124c-.1674,1.0539-.5637,1.5394-1.0906,1.4557-.4312-.0685-.4762-.403-.3519-.8253l.7128-2.3751-.5828-.0926-.2573.5894a1.0725,1.0725,0,0,0-1.0033-.8469,1.9513,1.9513,0,0,0-2.1828,1.8388,1.4229,1.4229,0,0,0,1.09,1.7938,1.5673,1.5673,0,0,0,1.4651-.463.9582.9582,0,0,0,.8691.8665c.8783.1395,1.6522-.507,1.8665-1.8563a3.01,3.01,0,0,0-2.7343-3.7084,3.3671,3.3671,0,0,0-4.0831,2.9285A3.159,3.159,0,0,0,435.4811,209.9632Zm.1974-2.1705c-.5509-.0875-.7922-.5269-.6882-1.1816.1471-.9261.7111-1.385,1.4137-1.2734.6946.11.8232.5891.6575,1.1686l-.1387.4609A1.08,1.08,0,0,1,435.6785,207.7927Zm5.961,3.3369c1.1576.1838,2.1292-.1612,2.2611-.9915.1014-.6387-.3088-1.0967-1.1152-1.2248l-1.3333-.2118c-.3034-.0482-.4734-.2143-.4341-.4618a.4229.4229,0,0,1,.453-.3783,2.8423,2.8423,0,0,0,.6512.1771c1.0459.1661,1.8175-.26,1.9468-1.0741a1.23,1.23,0,0,0-.386-1.1254c.1629-.2524.49-.356,1.0068-.2576l-.0385-.6855a1.09,1.09,0,0,0-1.3144.7,2.5072,2.5072,0,0,0-.7861-.2559c-1.0379-.1648-1.8175.26-1.9468,1.0742a1.2212,1.2212,0,0,0,.441,1.1914.8218.8218,0,0,0-.75.7.8542.8542,0,0,0,.4384.8472.8315.8315,0,0,0-.8323.6536C439.8078,210.3967,440.3221,210.92,441.64,211.13Zm.5765-3.6819a.7708.7708,0,1,1,.9828-.6215A.789.789,0,0,1,442.216,207.4477Zm-.3953,3.0559c-.8463-.1345-1.2192-.4147-1.1634-.766.0418-.2635.2987-.3864.7858-.309l1.0778.1712c.5269.0837.6705.262.63.5175C443.1014,210.4286,442.6351,210.6329,441.8207,210.5036Zm3.82-.4984.3373-2.1237c.142-.8942.7567-1.1568,1.2357-1.0807.4711.0748.7805.3941.6766,1.0488l-.3893,2.4511.8543.1356.3449-2.1716a1.0817,1.0817,0,0,1,1.2281-1.0327c.471.0748.7805.394.6765,1.0487l-.3893,2.4511.8543.1357.4108-2.5868a1.4023,1.4023,0,0,0-1.2331-1.7184,1.5327,1.5327,0,0,0-1.5081.5791,1.4176,1.4176,0,0,0-1.2145-1.0115,1.4564,1.4564,0,0,0-1.4113.5371l.0653-.669-.7585-.12-.634,3.992Zm9.9034,1.6548a1.2552,1.2552,0,0,0,.51-.0172l.1472-.566a1.17,1.17,0,0,1-.3-.015c-.2155-.0342-.28-.1427-.2484-.3423l.2865-1.8044c.1522-.9581-.4621-1.5222-1.46-1.6807a1.6284,1.6284,0,0,0-1.8415.7716l.6069.4566a1.0011,1.0011,0,0,1,1.144-.555.75.75,0,0,1,.6888.92l-.0329.2076-1.0432.0226c-1.075.0175-1.6583.3915-1.7559,1.0062-.11.6946.3848,1.1334,1.1353,1.2526a1.5864,1.5864,0,0,0,1.4443-.3845C454.8428,211.3849,455.1129,211.5915,455.544,211.66Zm-1.8773-.9612c-.3752-.06-.5734-.2548-.5265-.55.0507-.3194.3513-.46.9107-.4774l.8982-.0375-.0761.4791C454.7969,210.5918,454.2016,210.7837,453.6667,210.6988Zm4.4189-3.4973a.5072.5072,0,0,0,.6519-.4449.5016.5016,0,0,0-.4832-.6169.5078.5078,0,0,0-.6585.4356A.5135.5135,0,0,0,458.0856,207.2015Zm-.3174,4.73.6341-3.992-.8543-.1357-.634,3.992Zm2.3346.4526a1.6025,1.6025,0,0,0,.6843-.03l.2048-.6714a1.28,1.28,0,0,1-.5434.02c-.3193-.0507-.3936-.2016-.3315-.5929l.7342-4.6227-.8542-.1356-.7533,4.7424C459.1207,211.8679,459.3923,212.2712,460.1028,212.384Zm1.9082.3031a.56.56,0,0,0,.6914-.4877.5543.5543,0,0,0-.5075-.67.5608.5608,0,0,0-.6981.4785A.5668.5668,0,0,0,462.011,212.6871Zm3.5209.5592a1.7,1.7,0,0,0,1.9375-.9119l-.7406-.3878a.9191.9191,0,0,1-1.105.6185c-.7026-.1116-1.0484-.6658-.9051-1.568s.6383-1.3392,1.3489-1.2264a.9158.9158,0,0,1,.8136.9069l.8492-.1926a1.6955,1.6955,0,0,0-1.555-1.3929,2.1035,2.1035,0,0,0-.6435,4.1542Zm4.503.7152a2.1038,2.1038,0,1,0-1.6583-2.3916A1.8906,1.8906,0,0,0,470.0349,213.9615Zm.1065-.6707c-.7185-.1141-1.0458-.6818-.9025-1.584s.63-1.34,1.3489-1.2263,1.0538.683.91,1.5852S470.86,213.4049,470.1414,213.2908Zm3.8423,1.216.3373-2.1238c.142-.8942.7567-1.1567,1.2357-1.0806.4711.0748.7805.3941.6765,1.0487l-.3893,2.4511.8543.1357.3449-2.1716a1.0819,1.0819,0,0,1,1.2282-1.0328c.471.0748.7805.3941.6765,1.0488l-.3893,2.4511.8543.1356.4108-2.5868a1.4022,1.4022,0,0,0-1.2332-1.7183,1.5325,1.5325,0,0,0-1.508.579,1.4175,1.4175,0,0,0-1.2145-1.0114,1.4564,1.4564,0,0,0-1.4113.5371l.0653-.669-.7585-.12-.634,3.992Z"/><path id="ab739159-9f1e-4c04-8354-c4b33449a3aa" data-name="johnsmith" d="M392.5838,209.4856a.5268.5268,0,0,0,.6518-.4449.58.58,0,0,0-1.1417-.1814A.5293.5293,0,0,0,392.5838,209.4856Zm-1.8994,6.2384a1.2324,1.2324,0,0,0,1.5262-1.1573l.69-4.3433-.8543-.1357-.6771,4.2635c-.085.5349-.3377.683-.681.6285a.9819.9819,0,0,1-.5793-.3212l-.2607.6625A1.49,1.49,0,0,0,390.6844,215.724Zm4.6511-.9393a2.1038,2.1038,0,1,0-1.6583-2.3916A1.8906,1.8906,0,0,0,395.3355,214.7847Zm.1065-.6706c-.7185-.1142-1.0458-.6818-.9025-1.584s.63-1.34,1.3489-1.2264,1.0538.683.9105,1.5852S396.1606,214.2282,395.442,214.1141Zm3.8423,1.2159.3348-2.1077c.1458-.9182.7592-1.1728,1.2861-1.0891.487.0774.8125.3992.6869,1.19l-.3677,2.3154.8543.1356.4108-2.5868a1.5279,1.5279,0,0,0-2.6726-1.21l.3867-2.4352-.8543-.1356-.9193,5.7883Zm4.9421.7849.336-2.1157c.1458-.9182.758-1.1647,1.2849-1.081.487.0773.8124.3991.6869,1.1895l-.3677,2.3154.8543.1357.4108-2.5869a1.4,1.4,0,0,0-1.2651-1.7234,1.4388,1.4388,0,0,0-1.4685.5362l.0666-.677-.7585-.12-.634,3.992Zm5.52.9586c1.1018.175,1.82-.2265,1.932-.9291.1052-.6627-.2475-1.0707-1.3562-1.46-.7289-.2549-.9364-.4434-.8907-.7308.0393-.2475.4127-.4337.9077-.3551a1.04,1.04,0,0,1,.954.8472l.6778-.3507a1.6291,1.6291,0,0,0-1.5333-1.1685c-1.07-.17-1.7705.3246-1.8732.9713-.1065.6706.2541,1.08,1.4082,1.4924.6731.246.8818.4265.8425.674-.0431.2715-.3635.4334-.93.3433a1.24,1.24,0,0,1-1.1322-.8592l-.6535.4037A1.96,1.96,0,0,0,409.7466,217.0735Zm3.6454.4972.3373-2.1238c.142-.8942.7566-1.1567,1.2357-1.0806.471.0748.7805.394.6765,1.0487l-.3893,2.4511.8543.1357.3449-2.1716a1.0818,1.0818,0,0,1,1.2281-1.0328c.4711.0748.78.3941.6766,1.0488l-.3893,2.451.8543.1357.4108-2.5868a1.4022,1.4022,0,0,0-1.2332-1.7183,1.5323,1.5323,0,0,0-1.508.579,1.4176,1.4176,0,0,0-1.2145-1.0114,1.4566,1.4566,0,0,0-1.4114.5371l.0654-.669-.7585-.12-.634,3.992Zm7.8941-3.5265a.5072.5072,0,0,0,.6518-.4449.5016.5016,0,0,0-.4831-.617.508.508,0,0,0-.6586.4357A.5136.5136,0,0,0,421.2861,214.0442Zm-.3174,4.73.6341-3.992-.8543-.1356-.634,3.992Zm2.8456.5338a1.664,1.664,0,0,0,1.1164-.1746l-.1007-.6545a.9222.9222,0,0,1-.6873.1528.5243.5243,0,0,1-.4928-.6594l.3373-2.1238,1.3972.2219.1066-.6706-1.3972-.2219.1864-1.1737-.8924.1039-.1483.9341-.7585-.12-.1065.6707.7585.12-.36,2.2675A1.0824,1.0824,0,0,0,423.8143,219.3078Zm2.7272.3513.3348-2.1077c.1458-.9182.7592-1.1727,1.2862-1.0891.487.0774.8124.3992.6869,1.19l-.3678,2.3154.8543.1356.4109-2.5868a1.528,1.528,0,0,0-2.6727-1.21l.3868-2.4351-.8543-.1357-.9193,5.7883Z"/><path id="e87d072f-4f62-4d9d-a7c2-53c7fe3282c0" data-name="johnsmith" d="M390.6183,221.8607a.5268.5268,0,0,0,.6518-.4449.58.58,0,0,0-1.1417-.1813A.5293.5293,0,0,0,390.6183,221.8607Zm-1.8994,6.2384a1.2323,1.2323,0,0,0,1.5262-1.1573l.69-4.3432-.8542-.1357-.6772,4.2634c-.0849.5349-.3377.6831-.681.6286a.9822.9822,0,0,1-.5792-.3212l-.2608.6625A1.49,1.49,0,0,0,388.7189,228.0991Zm4.6511-.9392a2.1038,2.1038,0,1,0-1.6583-2.3916A1.8906,1.8906,0,0,0,393.37,227.16Zm.1066-.6707c-.7186-.1141-1.0459-.6818-.9026-1.584s.63-1.3405,1.3489-1.2263,1.0538.683.9106,1.5852S394.1951,226.6033,393.4766,226.4892Zm3.8422,1.216.3348-2.1078c.1458-.9182.7592-1.1727,1.2862-1.089.487.0773.8124.3991.6869,1.19l-.3678,2.3153.8543.1357.4109-2.5868a1.5281,1.5281,0,0,0-2.6727-1.21l.3867-2.4351-.8542-.1357-.9194,5.7884Zm4.9421.7849.336-2.1158c.1458-.9181.758-1.1647,1.2849-1.081.487.0774.8125.3992.6869,1.19l-.3677,2.3153.8543.1357.4108-2.5868a1.4,1.4,0,0,0-1.2651-1.7234,1.4387,1.4387,0,0,0-1.4685.5362l.0666-.677-.7585-.12-.634,3.992Zm5.52.9586c1.1018.175,1.82-.2266,1.932-.9292.1052-.6626-.2474-1.0706-1.3562-1.4595-.7289-.255-.9363-.4434-.8907-.7308.0393-.2476.4127-.4338.9077-.3552a1.0405,1.0405,0,0,1,.9541.8473l.6778-.3507a1.6291,1.6291,0,0,0-1.5334-1.1685c-1.07-.17-1.77.3245-1.8732.9712-.1065.6707.2542,1.08,1.4083,1.4924.673.2461.8817.4265.8424.674-.0431.2715-.3635.4334-.93.3434a1.2407,1.2407,0,0,1-1.1322-.8592l-.6535.4037A1.96,1.96,0,0,0,407.7811,229.4487Zm3.6454.4971.3373-2.1237c.142-.8942.7567-1.1568,1.2357-1.0807.4711.0748.78.3941.6765,1.0488l-.3893,2.4511.8543.1356.3449-2.1716a1.0819,1.0819,0,0,1,1.2282-1.0328c.471.0749.7805.3941.6765,1.0488l-.3893,2.4511.8543.1357.4108-2.5868a1.4023,1.4023,0,0,0-1.2332-1.7184,1.5327,1.5327,0,0,0-1.508.579,1.4177,1.4177,0,0,0-1.2145-1.0114,1.4564,1.4564,0,0,0-1.4113.5371l.0653-.669-.7585-.1205-.634,3.992Zm7.8942-3.5265a.5072.5072,0,0,0,.6518-.4449.5016.5016,0,0,0-.4832-.6169.5078.5078,0,0,0-.6585.4356A.5135.5135,0,0,0,419.3207,226.4193Zm-.3174,4.73.634-3.992-.8543-.1357-.634,3.992Zm2.8455.5338a1.6639,1.6639,0,0,0,1.1164-.1747l-.1007-.6544a.9221.9221,0,0,1-.6872.1527.5242.5242,0,0,1-.4928-.6594l.3373-2.1237,1.3972.2219.1065-.6707-1.3972-.2219.1864-1.1736-.8923.1038-.1484.9341-.7585-.12-.1065.6706.7585.12-.36,2.2674A1.0823,1.0823,0,0,0,421.8488,231.683Zm2.7273.3513.3347-2.1078c.1459-.9181.7593-1.1727,1.2862-1.089.487.0773.8124.3991.6869,1.19l-.3677,2.3153.8543.1357.4108-2.5868a1.528,1.528,0,0,0-2.6726-1.21l.3867-2.4351-.8543-.1357-.9193,5.7884Z"/><path id="eb9ae047-0899-46cf-bca7-a9554481b0b3" data-name="johnsmith.com" d="M388.6528,234.2359a.5268.5268,0,0,0,.6518-.4449.58.58,0,0,0-1.1417-.1814A.5293.5293,0,0,0,388.6528,234.2359Zm-1.8994,6.2384a1.2324,1.2324,0,0,0,1.5262-1.1573l.69-4.3433-.8543-.1357-.6772,4.2635c-.0849.5349-.3376.683-.6809.6285a.9819.9819,0,0,1-.5793-.3212l-.2608.6625A1.49,1.49,0,0,0,386.7534,240.4743Zm4.6512-.9393a2.1038,2.1038,0,1,0-1.6583-2.3916A1.8906,1.8906,0,0,0,391.4046,239.535Zm.1065-.6707c-.7186-.1141-1.0459-.6817-.9026-1.5839s.63-1.34,1.3489-1.2264,1.0539.683.9106,1.5852S392.23,238.9785,391.5111,238.8643Zm3.8422,1.216.3348-2.1078c.1458-.9181.7592-1.1727,1.2862-1.089.487.0774.8124.3992.6869,1.19l-.3678,2.3153.8543.1357.4109-2.5868a1.5281,1.5281,0,0,0-2.6727-1.21l.3868-2.4351-.8543-.1356-.9193,5.7883Zm4.9421.7849.3361-2.1157c.1458-.9182.7579-1.1647,1.2849-1.0811.487.0774.8124.3992.6869,1.19l-.3678,2.3154.8543.1356.4109-2.5868a1.4,1.4,0,0,0-1.2652-1.7234,1.4389,1.4389,0,0,0-1.4685.5362l.0666-.677-.7584-.12-.6341,3.9919Zm5.52.9586c1.1018.175,1.82-.2265,1.932-.9291.1053-.6627-.2474-1.0707-1.3561-1.46-.729-.2549-.9364-.4434-.8908-.7308.0393-.2475.4127-.4338.9077-.3551a1.04,1.04,0,0,1,.9541.8472l.6778-.3507a1.6292,1.6292,0,0,0-1.5334-1.1685c-1.07-.17-1.77.3246-1.8731.9713-.1065.6706.2541,1.08,1.4082,1.4924.673.246.8818.4265.8424.674-.0431.2714-.3635.4334-.93.3433a1.2406,1.2406,0,0,1-1.1323-.8592l-.6535.4037A1.96,1.96,0,0,0,405.8156,241.8238Zm3.6454.4971.3373-2.1237c.142-.8942.7567-1.1567,1.2357-1.0806.4711.0748.7805.394.6766,1.0487l-.3893,2.4511.8543.1357.3449-2.1717a1.0817,1.0817,0,0,1,1.2281-1.0327c.471.0748.7805.3941.6765,1.0488l-.3893,2.451.8543.1357.4109-2.5868a1.4023,1.4023,0,0,0-1.2332-1.7183,1.5324,1.5324,0,0,0-1.5081.579,1.4174,1.4174,0,0,0-1.2145-1.0114,1.456,1.456,0,0,0-1.4113.5371l.0653-.6691-.7585-.12-.634,3.992Zm7.8942-3.5264a.5073.5073,0,0,0,.6518-.4449.5016.5016,0,0,0-.4832-.617.5079.5079,0,0,0-.6585.4357A.5135.5135,0,0,0,417.3552,238.7945Zm-.3174,4.73.634-3.992-.8543-.1356-.634,3.9919Zm2.8456.5338A1.6642,1.6642,0,0,0,421,243.8835l-.1007-.6545a.9224.9224,0,0,1-.6873.1528.5243.5243,0,0,1-.4928-.6594l.3373-2.1238,1.3972.2219.1065-.6706-1.3972-.2219.1864-1.1737-.8923.1039-.1484.9341-.7585-.1205-.1065.6707.7585.12-.36,2.2675A1.0823,1.0823,0,0,0,419.8834,244.0581Zm2.7272.3513.3348-2.1077c.1458-.9182.7592-1.1728,1.2861-1.0891.4871.0774.8125.3992.6869,1.19l-.3677,2.3154.8543.1356.4108-2.5868a1.5279,1.5279,0,0,0-2.6726-1.21l.3867-2.4352-.8542-.1356-.9194,5.7883Zm4.5062.7976a.56.56,0,0,0,.6914-.4878.5542.5542,0,0,0-.5075-.67.5608.5608,0,0,0-.6981.4785A.5669.5669,0,0,0,427.1168,245.207Zm3.521.5592a1.7,1.7,0,0,0,1.9374-.9119l-.7406-.3878a.9191.9191,0,0,1-1.105.6185c-.7026-.1116-1.0484-.6658-.9051-1.568s.6383-1.3392,1.3489-1.2264a.9159.9159,0,0,1,.8137.9069l.8491-.1926a1.6954,1.6954,0,0,0-1.555-1.3929,2.1035,2.1035,0,0,0-.6434,4.1542Zm4.5029.7152a2.1038,2.1038,0,1,0-1.6583-2.3916A1.8906,1.8906,0,0,0,435.1407,246.4814Zm.1065-.6707c-.7185-.1141-1.0458-.6818-.9025-1.584s.63-1.34,1.3489-1.2263,1.0538.683.9105,1.5852S435.9658,245.9248,435.2472,245.8107Zm3.8423,1.216.3373-2.1238c.142-.8942.7567-1.1567,1.2357-1.0806.4711.0748.78.3941.6766,1.0487l-.3893,2.4511.8543.1357.3449-2.1716a1.0818,1.0818,0,0,1,1.2281-1.0328c.471.0748.7805.3941.6765,1.0488l-.3893,2.4511.8543.1356.4108-2.5868a1.4021,1.4021,0,0,0-1.2331-1.7183,1.5326,1.5326,0,0,0-1.5081.579,1.4175,1.4175,0,0,0-1.2145-1.0114,1.4564,1.4564,0,0,0-1.4113.5371l.0653-.669-.7585-.12-.634,3.992Z"/><g id="ff7a0205-e0d6-41f2-a461-65ae475b250e" data-name="email"><g id="bc34c90e-4345-4017-bc14-7b94ba1c2b64" data-name="Shape" opacity="0.44"><path d="M387.7742,195.0849l-6.7065-1.0652a.8529.8529,0,0,0-.9689.7158l-.8125,5.0892a.8564.8564,0,0,0,.7035.9814l6.7067,1.0652a.8564.8564,0,0,0,.9729-.7152l.8084-5.09A.8563.8563,0,0,0,387.7742,195.0849Zm-.2319,1.7172-3.7555,1.7422-3.0307-2.82.1449-.9124,3.0309,2.82,3.7555-1.7423-.145.9125Z"/></g></g><g id="ef7618cd-f6ab-455e-8ad2-b9a1b8b415ba" data-name="instagram"><g id="f37344a6-1a04-43c6-88f1-e0612417f652" data-name="Shape" opacity="0.44"><path d="M382.5823,206.1291c-1.1384-.1809-1.2819-.1987-1.7322-.2494a3.1193,3.1193,0,0,0-1.0484.0333,2.1707,2.1707,0,0,0-1.4206,1.0312,3.1182,3.1182,0,0,0-.3564.9865c-.0914.4439-.1189.5859-.3,1.7242s-.1987,1.2819-.2493,1.7322a3.1168,3.1168,0,0,0,.0333,1.0484,2.17,2.17,0,0,0,1.0312,1.4206,3.1157,3.1157,0,0,0,.9865.3564c.4438.0914.5858.1189,1.7242.3s1.2818.1986,1.7321.2493a3.12,3.12,0,0,0,1.0485-.0333,2.17,2.17,0,0,0,1.4205-1.0311,3.1163,3.1163,0,0,0,.3565-.9866c.0914-.4438.1189-.5858.3-1.7241s.1987-1.2819.2493-1.7322a3.1194,3.1194,0,0,0-.0333-1.0484,2.1707,2.1707,0,0,0-1.0312-1.4206,3.1156,3.1156,0,0,0-.9865-.3565C383.8627,206.3373,383.7207,206.31,382.5823,206.1291Zm-.12.7552c1.1191.1777,1.2511.203,1.69.2934a2.3518,2.3518,0,0,1,.7555.268,1.405,1.405,0,0,1,.6691.9219,2.3481,2.3481,0,0,1,.0207.8012c-.05.4452-.0668.5784-.2446,1.6976s-.203,1.2511-.2934,1.69a2.351,2.351,0,0,1-.268.7554,1.4041,1.4041,0,0,1-.9219.6691,2.3453,2.3453,0,0,1-.8012.0207c-.4451-.05-.5783-.0668-1.6976-.2445s-1.2512-.203-1.69-.2935a2.3489,2.3489,0,0,1-.7555-.2679,1.4048,1.4048,0,0,1-.6691-.9219,2.3473,2.3473,0,0,1-.0208-.8012c.05-.4452.067-.5784.2447-1.6976s.2031-1.2511.2934-1.69a2.351,2.351,0,0,1,.268-.7554,1.4053,1.4053,0,0,1,.9219-.6692,2.3481,2.3481,0,0,1,.8012-.0207c.4451.05.5783.0669,1.6975.2447Zm-.204,1.2839a2.1794,2.1794,0,1,0,1.8106,2.4943A2.1794,2.1794,0,0,0,382.2584,208.1682Zm-.5637,3.55a1.4148,1.4148,0,1,1,1.6191-1.1754A1.4147,1.4147,0,0,1,381.6947,211.7179Zm3.3177-3.1995a.5093.5093,0,1,0-.5829.4231A.5094.5094,0,0,0,385.0124,208.5184Z"/></g></g><g id="bbf2ccf3-e16e-4060-860c-88261f857c85" data-name="twitter"><path id="bdf88654-8fc8-4cfe-a6a2-bbc3fe5b7b8d" data-name="Path" d="M384.5664,220.6936a3.4823,3.4823,0,0,1-1.0308.1139,1.7464,1.7464,0,0,0,.9073-.8312,3.4879,3.4879,0,0,1-1.1584.2437,1.743,1.743,0,0,0-3.18,1.1029,4.9451,4.9451,0,0,1-3.26-2.36,1.7427,1.7427,0,0,0,.1677,2.38,1.735,1.735,0,0,1-.7449-.3388l-.0035.0216a1.7422,1.7422,0,0,0,1.1118,1.9052,1.7451,1.7451,0,0,1-.7814-.0939,1.7432,1.7432,0,0,0,1.417,1.4493,3.5174,3.5174,0,0,1-2.6594.3077,4.9529,4.9529,0,0,0,8.1843-2.9239q.0177-.1113.03-.2233a3.5383,3.5383,0,0,0,1-.7537" opacity="0.44"/></g><g id="a5951ba4-eead-41da-9616-f70560e13088" data-name="public-24px"><g id="f7b03e3d-7e66-4562-bf10-47aec3a76cce" data-name="Shape" opacity="0.44"><path d="M378.6514,230.8793a4.2441,4.2441,0,1,0,3.5258,4.8573A4.2456,4.2456,0,0,0,378.6514,230.8793Zm-1.6128,7.449a3.39,3.39,0,0,1-2.4062-3.79,3.443,3.443,0,0,1,.2072-.7363l1.6888,2.3267-.0665.4191a.8513.8513,0,0,0,.7051.9715Zm3.0612-.6053a.842.842,0,0,0-.7038-.7092l-.4192-.0665.2-1.2575a.4255.4255,0,0,0-.3525-.4857l-2.515-.4.1332-.8383.8383.1332a.4257.4257,0,0,0,.4857-.3526l.1331-.8383.8384.1331a.8513.8513,0,0,0,.9714-.7052l.0273-.1718a3.3877,3.3877,0,0,1,.3634,5.5583Z"/></g></g><g id="b801ee17-16ac-4faf-b44d-7dfbcacc0f7b" data-name="default"><rect id="aad3db44-fe73-4632-8752-26bda7315e28" data-name="Rectangle" x="63.9328" y="53.2046" width="259.4975" height="170.5732" rx="19.3617" transform="matrix(0.936, -0.352, 0.352, 0.936, -36.3506, 77.0295)" fill="#783bff"/></g><g id="ff4fb444-4f8b-4ab0-96f5-57b54fcd7fc6" data-name="Card10"><path id="b9a36313-bbfc-43a5-9a52-a04209f10b22" data-name="JohnSmith" d="M75.3287,121.6547a2.8884,2.8884,0,0,0,1.1594-.7542,2.2243,2.2243,0,0,0,.5663-1.1412,2.5681,2.5681,0,0,0-.1426-1.341h0l-1.8487-5.043-1.5009.55,1.8487,5.043a1.3279,1.3279,0,0,1,.053.934.9161.9161,0,0,1-.5772.5464.9594.9594,0,0,1-.804.0053,1.2478,1.2478,0,0,1-.5149-.7079h0l-1.5109.5539a2.2751,2.2751,0,0,0,1.2552,1.4269A2.7456,2.7456,0,0,0,75.3287,121.6547Zm5.9735-2.19a2.5744,2.5744,0,0,0,1.59-1.437,3.0136,3.0136,0,0,0-.0373-2.2536h0l-.1457-.3666a2.8659,2.8659,0,0,0-1.4406-1.5377,2.6251,2.6251,0,0,0-2.0343-.0147,2.7749,2.7749,0,0,0-1.2267.8413,2.4183,2.4183,0,0,0-.5354,1.3029,3.4192,3.4192,0,0,0,.2162,1.55h0l.0238.065a3.0665,3.0665,0,0,0,1.4462,1.7854A2.5875,2.5875,0,0,0,81.3022,119.4648Zm-.4273-1.1657a1.02,1.02,0,0,1-.98-.1032,2.15,2.15,0,0,1-.7221-1.0719,2.3912,2.3912,0,0,1-.1784-1.3846,1.0056,1.0056,0,0,1,.6692-.7135,1.0225,1.0225,0,0,1,.9827.1108,2.1272,2.1272,0,0,1,.7243,1.0625,2.3505,2.3505,0,0,1,.1771,1.3964A1.0219,1.0219,0,0,1,80.8749,118.2991Zm5.2535-.717-1.41-3.8473a1.0481,1.0481,0,0,1,.7408-.8277.9139.9139,0,0,1,.747-.0213,1.0709,1.0709,0,0,1,.4523.6145h0l1.2563,3.4271,1.4459-.53-1.271-3.467q-.7751-2.037-2.5362-1.3915a1.9221,1.9221,0,0,0-1.1927,1.2205h0l-1.0491-2.8617-1.4458.53,2.817,7.6845Zm5.7384-2.1036-1.3994-3.8173a1.06,1.06,0,0,1,.7248-.8559.9542.9542,0,0,1,.7415-.0363.999.999,0,0,1,.445.5945h0l1.2691,3.4621,1.4459-.53-1.282-3.497a2.5112,2.5112,0,0,0-.9841-1.3532,1.6731,1.6731,0,0,0-1.466-.0358,2.0129,2.0129,0,0,0-1.29,1.2958h0l-.2743-.6088-1.3608.4988,1.9844,5.4132Zm9.6473-3.4231a3.3365,3.3365,0,0,0,1.729-1.2439,1.8672,1.8672,0,0,0,.1716-1.7457,2.0264,2.0264,0,0,0-1.1062-1.2062,4.8457,4.8457,0,0,0-2.2164-.2715,4.3024,4.3024,0,0,1-1.2182-.0642.7486.7486,0,0,1-.5759-.4642.7814.7814,0,0,1,.0805-.7248,1.4746,1.4746,0,0,1,.77-.5462,1.38,1.38,0,0,1,.9873-.047,1.0463,1.0463,0,0,1,.6.6624h0l1.5009-.55a2.2241,2.2241,0,0,0-.7669-1.0469,2.359,2.359,0,0,0-1.2406-.45,3.4868,3.4868,0,0,0-1.4944.2272,3.83,3.83,0,0,0-1.303.7728,2.3115,2.3115,0,0,0-.6905,1.0732,1.8741,1.8741,0,0,0,.0533,1.1751,2.1506,2.1506,0,0,0,1.9029,1.3512,8.1556,8.1556,0,0,0,1.4182.0448,4.1941,4.1941,0,0,1,1.2567.0841.82.82,0,0,1,.5395.5429.7539.7539,0,0,1-.0774.7179,1.4927,1.4927,0,0,1-.7557.5239q-1.4408.5282-1.8828-.6775h0l-1.5059.552a2.2993,2.2993,0,0,0,.8176,1.1078,2.58,2.58,0,0,0,1.3621.4569A3.9613,3.9613,0,0,0,101.5141,112.0554Zm4.9713-1.9359-1.4031-3.8273a.9979.9979,0,0,1,.7035-.8367.8579.8579,0,0,1,.7074-.021,1.0844,1.0844,0,0,1,.4345.6125h0l1.2637,3.4471,1.4458-.53-1.3677-3.7153a.9613.9613,0,0,1,.6731-.9505.85.85,0,0,1,.7134-.02,1.0978,1.0978,0,0,1,.4268.6069h0l1.2654,3.452,1.4509-.5319-1.2673-3.457a2.51,2.51,0,0,0-.9961-1.3857,1.72,1.72,0,0,0-1.4987-.0323,1.98,1.98,0,0,0-1.3234,1.4216,1.5376,1.5376,0,0,0-1.7384-.2992,2.0265,2.0265,0,0,0-1.2974,1.2758h0l-.2669-.5888-1.3558.497L105.04,110.65Zm6.002-9.0787a.8754.8754,0,0,0,.5108-.4257.8138.8138,0,0,0-.3918-1.0765.999.999,0,0,0-1.1832.4337.817.817,0,0,0,.3993,1.0738A.875.875,0,0,0,112.4874,101.0408Zm2.9482,5.7976-1.9844-5.4132L112,101.9571l1.9844,5.4132Zm3.0635-1.0095a3.17,3.17,0,0,0,.8278-.4511h0l-.4016-1.0956a2.4572,2.4572,0,0,1-.4124.1909.6155.6155,0,0,1-.488.0313.6871.6871,0,0,1-.2728-.388h0l-.99-2.7016.9256-.3393-.3888-1.0607-.9256.3393-.4878-1.3307-1.4459.53.4879,1.3308-.79.29.3888,1.0607.79-.29,1.0692,2.9167A1.47,1.47,0,0,0,118.4991,105.8289Zm3-1.2133-1.41-3.8473a1.0483,1.0483,0,0,1,.7408-.8278.9139.9139,0,0,1,.747-.0213,1.0712,1.0712,0,0,1,.4523.6146h0l1.2563,3.427,1.4459-.53-1.271-3.4671q-.7751-2.037-2.5361-1.3914a1.9217,1.9217,0,0,0-1.1928,1.22h0l-1.0491-2.8617-1.4458.53,2.817,7.6845Z" fill="#fff"/><path id="a5e65b20-33da-4168-b7c5-dbb75e467b1a" data-name="Founder,CEO" d="M79.9515,136.8658l-1.1793-3.2169,3.0568-1.1206-.2879-.7854-3.0568,1.1206-.9134-2.4915L81.123,129.07l-.29-.79-4.5126,1.6543,2.67,7.2843Zm6.8157-2.385a2.5528,2.5528,0,0,0,1.1648-.8243,2.4469,2.4469,0,0,0,.507-1.2954,3.4356,3.4356,0,0,0-.2173-1.5293h0l-.0238-.065a3.1365,3.1365,0,0,0-1.4294-1.7859,2.4313,2.4313,0,0,0-2.0691-.11,2.5237,2.5237,0,0,0-1.1467.812,2.4849,2.4849,0,0,0-.5111,1.3,3.4067,3.4067,0,0,0,.2119,1.5455h0l.0238.065a3.1209,3.1209,0,0,0,1.4257,1.7759A2.4254,2.4254,0,0,0,86.7672,134.4808Zm-.277-.7555a1.4236,1.4236,0,0,1-1.318-.1354,2.466,2.466,0,0,1-.9478-1.2927,2.6772,2.6772,0,0,1-.152-1.715,1.4155,1.4155,0,0,1,.9058-.9506,1.4311,1.4311,0,0,1,1.3258.1411,2.462,2.462,0,0,1,.9518,1.2884,2.6967,2.6967,0,0,1,.1524,1.7006A1.4152,1.4152,0,0,1,86.49,133.7253Zm5.6551-1.2161a2.0935,2.0935,0,0,0,1.353-1.2168h0l.2163.528.88-.3228-1.9844-5.4131-.9256.3392,1.4434,3.9374a1.4755,1.4755,0,0,1-1.121,1.3076q-1.0006.3669-1.4518-.8639h0l-1.282-3.4971-.9255.3393,1.2911,3.5221a2.3184,2.3184,0,0,0,1.0034,1.3206A1.7926,1.7926,0,0,0,92.1453,132.5092Zm4.7812-1.8662-1.4141-3.8573a1.7377,1.7377,0,0,1,.2993-.8248,1.423,1.423,0,0,1,.7024-.53,1.1425,1.1425,0,0,1,.9207-.02,1.3273,1.3273,0,0,1,.5849.7674h0l1.3132,3.5821.9255-.3393-1.3113-3.5771q-.7248-1.9306-2.4408-1.3015a2.1008,2.1008,0,0,0-1.3348,1.3746h0l-.2795-.6694-.8755.321,1.9844,5.4132Zm6.6656-2.33a2.0075,2.0075,0,0,0,1.2964-1.2472h0l.2578.5639.85-.3118-2.817-7.6845-.9256.3393,1.0344,2.8216a2.1395,2.1395,0,0,0-3.0124,1.2263,3.378,3.378,0,0,0,.1442,2.22h0l.0257.07a3.4157,3.4157,0,0,0,1.33,1.7938A1.9694,1.9694,0,0,0,103.5921,128.313Zm-.0578-.87a1.3092,1.3092,0,0,1-1.2414-.1351,2.5574,2.5574,0,0,1-.9084-1.3015,2.8155,2.8155,0,0,1-.19-1.6953,1.3155,1.3155,0,0,1,.8681-.9141,1.4489,1.4489,0,0,1,1.5563.2978h0l.9115,2.4864A1.4379,1.4379,0,0,1,103.5343,127.4431Zm6.1814-1.375a2.4211,2.4211,0,0,0,1.6579-1.7939h0l-.7268-.233a2.2227,2.2227,0,0,1-.4009.7486,1.7174,1.7174,0,0,1-.7571.5045,1.5659,1.5659,0,0,1-1.3189-.0755,2.0491,2.0491,0,0,1-.9418-1.1218h0l3.6671-1.3443-.1412-.3853a3.2072,3.2072,0,0,0-1.3153-1.7766,2.1594,2.1594,0,0,0-1.8959-.0938,2.3048,2.3048,0,0,0-1.0671.797,2.5557,2.5557,0,0,0-.4973,1.306,3.4583,3.4583,0,0,0,.22,1.5511h0l.0623.17a2.8576,2.8576,0,0,0,1.3993,1.6806A2.5192,2.5192,0,0,0,109.7157,126.0681Zm-.0248-3.7366-2.7116.9941a2.1111,2.1111,0,0,1,.0512-1.3156,1.3148,1.3148,0,0,1,.7911-.7526,1.2383,1.2383,0,0,1,1.0627.05,1.8782,1.8782,0,0,1,.7809.9538h0Zm4.0955,2.1308-1.4085-3.8422a1.2989,1.2989,0,0,1,.9514-1.2285,2.9581,2.9581,0,0,1,.4681-.1319h0l-.3154-.8605a1.0069,1.0069,0,0,0-.4359.08,1.5352,1.5352,0,0,0-1.0249,1.1986h0l-.2442-.62-.9006.33,1.9845,5.4132Zm3.0433.53a2.5194,2.5194,0,0,0,.3258-1.0388,2.4272,2.4272,0,0,0-.1228-1.1014h0l-.266-.7254-.9055.3319.3063.8355a2.572,2.572,0,0,1,.0049,1.5306h0Zm6.8242-4.034a2.9771,2.9771,0,0,0,1.6784-1.3275,2.8543,2.8543,0,0,0,.1992-2.0963h0l-.9656.354a2.1439,2.1439,0,0,1-.1047,1.4714,1.9692,1.9692,0,0,1-1.0953.813,1.7051,1.7051,0,0,1-1.6426-.1924,3.4182,3.4182,0,0,1-1.1867-1.7046h0l-.2586-.7054a3.3243,3.3243,0,0,1-.1869-2.1278,1.831,1.831,0,0,1,1.1939-1.2095,1.7522,1.7522,0,0,1,1.3112-.038,2.2193,2.2193,0,0,1,1.005,1.0617h0l.9656-.3539a2.8883,2.8883,0,0,0-1.473-1.4946,2.8034,2.8034,0,0,0-2.0986.0343,3.0489,3.0489,0,0,0-1.39.9777,2.8853,2.8853,0,0,0-.5943,1.56,4.4193,4.4193,0,0,0,.292,1.919h0l.2568.7a3.9661,3.9661,0,0,0,1.6858,2.1913A2.7337,2.7337,0,0,0,123.6539,120.9585Zm8.6634-3.2894-.2879-.7855-3.6672,1.3444-.9464-2.5815,3.1569-1.1573-.2879-.7855-3.1569,1.1573L126.27,112.52l3.6171-1.326-.29-.79-4.5777,1.6781,2.67,7.2843Zm3.914-1.3213a2.9908,2.9908,0,0,0,1.3868-.9851,2.9057,2.9057,0,0,0,.574-1.5924,4.7971,4.7971,0,0,0-.3248-2.0006h0l-.1687-.46a4.8224,4.8224,0,0,0-1.0452-1.7366,2.9013,2.9013,0,0,0-1.4775-.8488,3.0071,3.0071,0,0,0-1.6983.1431,2.8769,2.8769,0,0,0-1.9527,2.6,4.742,4.742,0,0,0,.3153,1.99h0l.1925.5253a4.605,4.605,0,0,0,1.0426,1.6751,2.8944,2.8944,0,0,0,3.156.69Zm-.299-.8155a1.8158,1.8158,0,0,1-1.7165-.1851,3.483,3.483,0,0,1-1.2514-1.78h0l-.1962-.5353a3.4071,3.4071,0,0,1-.1674-2.1208,1.8083,1.8083,0,0,1,1.1794-1.2184,1.828,1.828,0,0,1,1.71.1592,3.4783,3.4783,0,0,1,1.2494,1.798h0l.198.54a3.4637,3.4637,0,0,1,.1873,2.1362A1.8085,1.8085,0,0,1,135.9323,115.5323Z" fill="#fff"/><path id="a8ef9cf1-ef38-480a-830f-b57ede7798e0" data-name="johnsmith.com" d="M96.7223,184.5648a.5691.5691,0,0,0,.3553-.3.5633.5633,0,0,0,.0025-.4266.5823.5823,0,0,0-.2795-.3289.559.559,0,0,0-.4671-.0047.539.539,0,0,0-.3449.3052.5912.5912,0,0,0,.0008.4282.5751.5751,0,0,0,.2727.3257A.5507.5507,0,0,0,96.7223,184.5648Zm2.1842,8.853q1.4157-.519.8436-2.08h0l-2.2137-6.0386-.9255.3393,2.221,6.0586a.8822.8822,0,0,1,.051.6424.67.67,0,0,1-.4113.3409,1.9079,1.9079,0,0,1-.4349.1141h0l.2714.74A1.8279,1.8279,0,0,0,98.9065,193.4178Zm4.3632-3.9661a2.5536,2.5536,0,0,0,1.1649-.8243,2.4476,2.4476,0,0,0,.5069-1.2954,3.4348,3.4348,0,0,0-.2172-1.5292h0l-.0239-.0651a3.1362,3.1362,0,0,0-1.4293-1.7858,2.4316,2.4316,0,0,0-2.0692-.11,2.524,2.524,0,0,0-1.1467.8119,2.484,2.484,0,0,0-.511,1.3,3.4052,3.4052,0,0,0,.2118,1.5455h0l.0239.065a3.1208,3.1208,0,0,0,1.4256,1.7759A2.4254,2.4254,0,0,0,103.27,189.4517Zm-.2769-.7554a1.4241,1.4241,0,0,1-1.3181-.1355,2.466,2.466,0,0,1-.9478-1.2927,2.6769,2.6769,0,0,1-.152-1.7149,1.4155,1.4155,0,0,1,.9058-.9507,1.4314,1.4314,0,0,1,1.3258.1411,2.4627,2.4627,0,0,1,.9519,1.2884,2.6974,2.6974,0,0,1,.1524,1.7006A1.4156,1.4156,0,0,1,102.9928,188.6963Zm4.7879-1.0118-1.414-3.8572a1.7358,1.7358,0,0,1,.2992-.8248,1.4219,1.4219,0,0,1,.7024-.53,1.1421,1.1421,0,0,1,.9207-.02,1.3267,1.3267,0,0,1,.5849.7673h0l1.3132,3.5822.9255-.3393-1.3113-3.5771q-.7248-1.9307-2.4408-1.3016a2.096,2.096,0,0,0-1.324,1.3423h0L104.9636,180l-.9255.3393,2.817,7.6845Zm5.6433-2.0688-1.414-3.8572a1.7362,1.7362,0,0,1,.2992-.8248,1.4229,1.4229,0,0,1,.7024-.53,1.1425,1.1425,0,0,1,.9207-.02,1.3274,1.3274,0,0,1,.585.7674h0l1.3131,3.5821.9256-.3393-1.3114-3.5771q-.7246-1.9307-2.4407-1.3016a2.1009,2.1009,0,0,0-1.3349,1.3747h0l-.2794-.6694-.8756.321,1.9845,5.4131Zm6.7556-2.363a2.5922,2.5922,0,0,0,1.3454-.99,1.4752,1.4752,0,0,0,.154-1.3759,1.3558,1.3558,0,0,0-.4782-.6618,1.7449,1.7449,0,0,0-.8277-.284,5.3168,5.3168,0,0,0-1.2588.0415,3.4729,3.4729,0,0,1-1.0773.026.5978.5978,0,0,1-.45-.4081.7379.7379,0,0,1,.0742-.68,1.3477,1.3477,0,0,1,.71-.51,1.2874,1.2874,0,0,1,.9139-.0229.89.89,0,0,1,.5629.5371h0l.9306-.3411a1.608,1.608,0,0,0-1.0185-1.0058,2.41,2.41,0,0,0-1.6677.0722,2.3418,2.3418,0,0,0-1.27.9876,1.4954,1.4954,0,0,0-.15,1.332,1.2739,1.2739,0,0,0,.4507.6179,1.69,1.69,0,0,0,.7937.2766,4.965,4.965,0,0,0,1.2477-.0488,2.899,2.899,0,0,1,1.1167-.0036.7258.7258,0,0,1,.4964.4792.6957.6957,0,0,1-.11.6843,1.59,1.59,0,0,1-.765.5217,1.54,1.54,0,0,1-1.018.0638,1.0206,1.0206,0,0,1-.6432-.6013h0l-.9256.3393a1.65,1.65,0,0,0,.61.7894,1.9933,1.9933,0,0,0,1.0186.3559A2.9016,2.9016,0,0,0,120.18,183.2527Zm4.1758-1.6443-1.4488-3.9523a1.319,1.319,0,0,1,.9614-1.2322,1.1,1.1,0,0,1,1.5885.7571h0l1.3,3.5471.9306-.3412-1.3168-3.5921a1.3291,1.3291,0,0,1,.0917-.9728,1.3066,1.3066,0,0,1,.7427-.6213,1.2434,1.2434,0,0,1,.996-.0388,1.3237,1.3237,0,0,1,.5833.7708h0l1.3095,3.5721.9256-.3393-1.33-3.6272a1.7585,1.7585,0,0,0-2.5025-1.2221,2.21,2.21,0,0,0-.9351.6152,2.1831,2.1831,0,0,0-.4718.888,1.6483,1.6483,0,0,0-1.865-.3038,2.1291,2.1291,0,0,0-1.3492,1.2891h0l-.2451-.5911-.8755.3209,1.9844,5.4132Zm6.2919-9.48a.5687.5687,0,0,0,.3552-.3.5625.5625,0,0,0,.0025-.4265.5822.5822,0,0,0-.2794-.3289.5587.5587,0,0,0-.4671-.0047.55.55,0,0,0-.3509.3046.5885.5885,0,0,0,.0018.4306.5687.5687,0,0,0,.2751.3248A.56.56,0,0,0,130.6473,172.1283Zm2.7735,6.1569-1.9844-5.4132-.9256.3393,1.9844,5.4131Zm3.0985-1.0224a2.8578,2.8578,0,0,0,.6737-.3605h0l-.2751-.75a2.3814,2.3814,0,0,1-.4183.2214.6056.6056,0,0,1-.52.0061.7984.7984,0,0,1-.3139-.4382h0l-1.2307-3.357,1.0106-.3705-.2622-.7154-1.0106.37-.4805-1.3108-.9256.3393.4805,1.3108-.9856.3613.2623.7154.9856-.3613L134.74,176.28a1.7167,1.7167,0,0,0,.7058.95A1.228,1.228,0,0,0,136.5193,177.2628Zm2.6549-1.0868-1.4141-3.8572a1.7368,1.7368,0,0,1,.2992-.8248,1.4226,1.4226,0,0,1,.7025-.53,1.1421,1.1421,0,0,1,.9207-.02,1.3273,1.3273,0,0,1,.5849.7674h0l1.3132,3.5821.9255-.3393-1.3113-3.5771q-.7248-1.9307-2.4408-1.3016a2.0958,2.0958,0,0,0-1.324,1.3423h0l-1.0729-2.9267-.9256.3393,2.8171,7.6845Zm5.3283-1.8908a.6068.6068,0,0,0,.3759-.3138.5721.5721,0,0,0,.0063-.4393.6047.6047,0,0,0-.2943-.3461.5957.5957,0,0,0-.4914-.0015.5786.5786,0,0,0-.3691.3169.6179.6179,0,0,0,.0041.4525.5481.5481,0,0,0,.7685.3313Zm4.294-1.5231a2.4225,2.4225,0,0,0,.9514-.6325,2.2464,2.2464,0,0,0,.5422-.9593,1.7877,1.7877,0,0,0-.0044-1.0029h0l-.8756.321a1.1244,1.1244,0,0,1-.1351.9008,1.42,1.42,0,0,1-.7555.6175,1.3861,1.3861,0,0,1-1.2858-.1019,2.4891,2.4891,0,0,1-.9135-1.3h0l-.0642-.1751a2.54,2.54,0,0,1-.15-1.6105,1.38,1.38,0,0,1,.907-.9085,1.3177,1.3177,0,0,1,1.0068.014,1.3583,1.3583,0,0,1,.7141.7172h0l.8755-.321a2.0756,2.0756,0,0,0-1.1619-1.18,2.312,2.312,0,0,0-1.7133.0094,2.52,2.52,0,0,0-1.1585.8107,2.3526,2.3526,0,0,0-.4827,1.2609,3.47,3.47,0,0,0,.2252,1.5122h0l.0568.1551a3.13,3.13,0,0,0,1.3929,1.7793A2.3752,2.3752,0,0,0,148.7965,172.7621Zm5.4132-1.9844a2.5528,2.5528,0,0,0,1.1648-.8243,2.4469,2.4469,0,0,0,.507-1.2954,3.4356,3.4356,0,0,0-.2173-1.5293h0l-.0238-.065a3.1365,3.1365,0,0,0-1.4294-1.7859,2.4313,2.4313,0,0,0-2.0691-.11,2.5237,2.5237,0,0,0-1.1467.812,2.4849,2.4849,0,0,0-.5111,1.3,3.4067,3.4067,0,0,0,.2119,1.5455h0l.0238.065a3.1209,3.1209,0,0,0,1.4257,1.7759A2.4254,2.4254,0,0,0,154.21,170.7777Zm-.277-.7555a1.4236,1.4236,0,0,1-1.318-.1354,2.466,2.466,0,0,1-.9478-1.2927,2.6772,2.6772,0,0,1-.152-1.715,1.4156,1.4156,0,0,1,.9057-.9506,1.4316,1.4316,0,0,1,1.3259.1411,2.462,2.462,0,0,1,.9518,1.2884,2.6974,2.6974,0,0,1,.1524,1.7006A1.4152,1.4152,0,0,1,153.9327,170.0222Zm4.783-1.01-1.4489-3.9523a1.3188,1.3188,0,0,1,.9614-1.2321,1.1,1.1,0,0,1,1.5885.757h0l1.3,3.5471.93-.3411-1.3168-3.5921a1.3293,1.3293,0,0,1,.0917-.9729,1.3069,1.3069,0,0,1,.7427-.6213,1.2434,1.2434,0,0,1,.996-.0388,1.3236,1.3236,0,0,1,.5833.7708h0l1.31,3.5721.9256-.3393-1.33-3.6271a1.7585,1.7585,0,0,0-2.5025-1.2222,2.2114,2.2114,0,0,0-.9351.6152,2.1849,2.1849,0,0,0-.4718.888,1.6485,1.6485,0,0,0-1.865-.3038,2.1292,2.1292,0,0,0-1.3492,1.2892h0l-.2451-.5912-.8755.3209,1.9844,5.4132Z" fill="#fff"/><path id="ace76c7e-e317-49a1-aba2-fbd5655089c9" data-name="johnsmith@gmail.com" d="M101.954,198.8361a.5335.5335,0,0,0,.3578-.7271.5825.5825,0,0,0-.2795-.3288.5583.5583,0,0,0-.4671-.0047.5387.5387,0,0,0-.345.3052.5912.5912,0,0,0,.0009.4282.5753.5753,0,0,0,.2727.3257A.5515.5515,0,0,0,101.954,198.8361Zm2.1841,8.853q1.4158-.5192.8437-2.08h0l-2.2137-6.0385-.9256.3393,2.2211,6.0585a.8825.8825,0,0,1,.051.6425.67.67,0,0,1-.4113.3409,1.903,1.903,0,0,1-.4349.114h0l.2714.74A1.8325,1.8325,0,0,0,104.1381,207.6891Zm4.3633-3.9661a2.5535,2.5535,0,0,0,1.1648-.8243,2.4472,2.4472,0,0,0,.507-1.2954,3.4354,3.4354,0,0,0-.2173-1.5293h0l-.0238-.065a3.1365,3.1365,0,0,0-1.4294-1.7859,2.4313,2.4313,0,0,0-2.0691-.11,2.5237,2.5237,0,0,0-1.1467.812,2.4849,2.4849,0,0,0-.5111,1.3,3.4069,3.4069,0,0,0,.2119,1.5455h0l.0238.065a3.1211,3.1211,0,0,0,1.4257,1.7758A2.4254,2.4254,0,0,0,108.5014,203.723Zm-.277-.7555a1.4236,1.4236,0,0,1-1.318-.1354,2.4668,2.4668,0,0,1-.9478-1.2927,2.6772,2.6772,0,0,1-.152-1.715,1.4155,1.4155,0,0,1,.9058-.9506,1.4311,1.4311,0,0,1,1.3258.1411,2.4617,2.4617,0,0,1,.9518,1.2883,2.6963,2.6963,0,0,1,.1524,1.7007A1.4152,1.4152,0,0,1,108.2244,202.9675Zm4.788-1.0117-1.4141-3.8573a1.7367,1.7367,0,0,1,.2993-.8248,1.423,1.423,0,0,1,.7024-.53,1.1425,1.1425,0,0,1,.9207-.02,1.3276,1.3276,0,0,1,.5849.7674h0l1.3132,3.5821.9255-.3393-1.3113-3.5771q-.7248-1.9306-2.4408-1.3016a2.0961,2.0961,0,0,0-1.324,1.3424h0l-1.0729-2.9267-.9255.3392,2.817,7.6846Zm5.6433-2.0688-1.414-3.8573a1.7365,1.7365,0,0,1,.2992-.8248,1.423,1.423,0,0,1,.7024-.53,1.1429,1.1429,0,0,1,.9207-.02,1.3269,1.3269,0,0,1,.5849.7674h0l1.3132,3.5821.9255-.3393-1.3113-3.5771q-.7248-1.9307-2.4408-1.3015a2.1008,2.1008,0,0,0-1.3348,1.3746h0l-.2795-.6693-.8755.3209,1.9844,5.4132Zm6.7556-2.363a2.5932,2.5932,0,0,0,1.3454-.99,1.4759,1.4759,0,0,0,.154-1.376,1.3567,1.3567,0,0,0-.4782-.6618,1.7459,1.7459,0,0,0-.8277-.284,5.3184,5.3184,0,0,0-1.2589.0416,3.4755,3.4755,0,0,1-1.0772.026.5978.5978,0,0,1-.45-.4081.7381.7381,0,0,1,.0742-.68,1.3479,1.3479,0,0,1,.71-.51,1.2882,1.2882,0,0,1,.9138-.0229.89.89,0,0,1,.563.5371h0l.9305-.3411a1.6074,1.6074,0,0,0-1.0185-1.0057,2.4086,2.4086,0,0,0-1.6676.0722,2.34,2.34,0,0,0-1.27.9875,1.4958,1.4958,0,0,0-.15,1.332,1.2753,1.2753,0,0,0,.4507.618,1.6913,1.6913,0,0,0,.7938.2765,4.96,4.96,0,0,0,1.2477-.0488,2.8991,2.8991,0,0,1,1.1167-.0036.7259.7259,0,0,1,.4964.4793.6957.6957,0,0,1-.11.6843,1.59,1.59,0,0,1-.765.5216,1.54,1.54,0,0,1-1.018.0639,1.0208,1.0208,0,0,1-.6433-.6013h0l-.9255.3393a1.65,1.65,0,0,0,.61.7894,1.994,1.994,0,0,0,1.0187.3559A2.9047,2.9047,0,0,0,125.4113,197.524Zm4.1758-1.6443-1.4489-3.9524a1.319,1.319,0,0,1,.9615-1.2321,1.1,1.1,0,0,1,1.5885.757h0l1.3,3.5471.9306-.3411-1.3169-3.5921a1.3294,1.3294,0,0,1,.0918-.9729,1.3066,1.3066,0,0,1,.7427-.6213,1.2436,1.2436,0,0,1,.9959-.0388,1.3237,1.3237,0,0,1,.5834.7708h0l1.31,3.5721.9255-.3393-1.33-3.6271a1.7585,1.7585,0,0,0-2.5025-1.2222,2.2117,2.2117,0,0,0-.9351.6152,2.1841,2.1841,0,0,0-.4718.8881,1.6482,1.6482,0,0,0-1.865-.3038,2.1289,2.1289,0,0,0-1.3492,1.2891h0l-.2451-.5912-.8755.321,1.9844,5.4131Zm6.2919-9.48a.5334.5334,0,0,0,.3577-.7271.5816.5816,0,0,0-.2794-.3288.5583.5583,0,0,0-.4671-.0047.55.55,0,0,0-.3509.3045.5887.5887,0,0,0,.0018.4307.569.569,0,0,0,.2751.3248A.56.56,0,0,0,135.879,186.4Zm2.7735,6.1568-1.9845-5.4132-.9255.3393,1.9844,5.4132Zm3.0984-1.0224a2.8579,2.8579,0,0,0,.6738-.36h0l-.2751-.75a2.3849,2.3849,0,0,1-.4183.2214.6058.6058,0,0,1-.52.0062.7988.7988,0,0,1-.3139-.4383h0l-1.2306-3.357,1.0106-.37-.2623-.7155-1.0106.37-.48-1.3108-.9255.3393.48,1.3108-.9856.3613.2623.7154.9856-.3613,1.2306,3.357a1.7167,1.7167,0,0,0,.7058.95A1.2275,1.2275,0,0,0,141.7509,191.534Zm2.6549-1.0867-1.414-3.8573a1.7376,1.7376,0,0,1,.2992-.8248,1.4233,1.4233,0,0,1,.7025-.53,1.1422,1.1422,0,0,1,.9206-.02,1.3274,1.3274,0,0,1,.585.7674h0l1.3132,3.5821.9255-.3393-1.3113-3.5771q-.7248-1.9306-2.4408-1.3016a2.0959,2.0959,0,0,0-1.324,1.3424h0l-1.0729-2.9267-.9256.3393,2.8171,7.6845Zm9.3258-.8479a4.6442,4.6442,0,0,0,.9923-.5056,2.9858,2.9858,0,0,0,.7056-.6219h0l-.396-.5075a3.0038,3.0038,0,0,1-.6484.5612,4.0548,4.0548,0,0,1-.8627.4411,3.393,3.393,0,0,1-1.96.1711,3.0564,3.0564,0,0,1-1.61-.9933,5.4993,5.4993,0,0,1-1.09-2.0437,5.9211,5.9211,0,0,1-.2907-2.3565,3.6107,3.6107,0,0,1,.7035-1.8895,3.4612,3.4612,0,0,1,1.6035-1.1526,3.1935,3.1935,0,0,1,2.8632.1082,4.5841,4.5841,0,0,1,1.81,2.7017,3.1016,3.1016,0,0,1,.1553,1.6,1.1159,1.1159,0,0,1-.71.8959q-.7353.27-1.064-.9209h0l-.7559-2.867a2.67,2.67,0,0,0-.8754-.1586,2.42,2.42,0,0,0-.7649.1583,1.72,1.72,0,0,0-.8673.738,2.8815,2.8815,0,0,0-.4073,1.3042,4.6858,4.6858,0,0,0,.1624,1.6118,2.7147,2.7147,0,0,0,.8589,1.5069,1.2685,1.2685,0,0,0,1.2884.186,1.4721,1.4721,0,0,0,.6418-.4708,2.0284,2.0284,0,0,0,.3859-.8593,1.2086,1.2086,0,0,0,1.5088.4,1.8461,1.8461,0,0,0,1.1891-1.23,3.554,3.554,0,0,0-.1-2.1313,6.1735,6.1735,0,0,0-1.2812-2.3339,3.58,3.58,0,0,0-1.9182-1.13,4.5253,4.5253,0,0,0-4.2687,1.6075,4.4453,4.4453,0,0,0-.8842,2.248,6.3878,6.3878,0,0,0,.2916,2.7,6.0516,6.0516,0,0,0,1.2946,2.3319,3.6478,3.6478,0,0,0,1.9426,1.1266A4.2344,4.2344,0,0,0,153.7316,189.5994Zm-1.1964-2.83a.7224.7224,0,0,1-.7823-.1446,2.0752,2.0752,0,0,1-.5324-1.042,3.8531,3.8531,0,0,1-.1183-1.8011,1.2,1.2,0,0,1,.75-.95,1.3691,1.3691,0,0,1,.6535-.075h0l.6924,2.6008.0115.0469a1.998,1.998,0,0,1-.19.8982A.9053.9053,0,0,1,152.5352,186.7691Zm8.6263-.0466a2.4483,2.4483,0,0,0,1.4516-1.2188,2.3455,2.3455,0,0,0,.0158-1.8844h0l-1.9367-5.2831-.8455.31.175.6168a2.15,2.15,0,0,0-3.0794,1.1828,3.3884,3.3884,0,0,0,.1529,2.2283,3.5624,3.5624,0,0,0,1.3526,1.8707,1.9692,1.9692,0,0,0,1.819.2015,2.026,2.026,0,0,0,1.2812-1.1961h0l.1705.4653a1.5475,1.5475,0,0,1,.0148,1.2091,1.5106,1.5106,0,0,1-.9137.7663,1.928,1.928,0,0,1-1.7255-.2017h0l-.2767.7314a2.1,2.1,0,0,0,1.1068.3717A2.9647,2.9647,0,0,0,161.1615,186.7225Zm-.9525-2.846a1.2984,1.2984,0,0,1-1.2423-.1377,2.5851,2.5851,0,0,1-.9025-1.3008,2.816,2.816,0,0,1-.19-1.6953,1.31,1.31,0,0,1,.863-.9123,1.4612,1.4612,0,0,1,1.56.3078h0l.906,2.4715A1.444,1.444,0,0,1,160.209,183.8765Zm4.7839-.9762-1.4488-3.9524a1.3189,1.3189,0,0,1,.9614-1.2321,1.1,1.1,0,0,1,1.5885.7571h0l1.3,3.547.9305-.3411-1.3168-3.5921a1.3294,1.3294,0,0,1,.0917-.9729,1.3077,1.3077,0,0,1,.7427-.6213,1.2442,1.2442,0,0,1,.996-.0388,1.3243,1.3243,0,0,1,.5833.7708h0l1.31,3.5721.9256-.3392-1.33-3.6272a1.7586,1.7586,0,0,0-2.5025-1.2222,2.2124,2.2124,0,0,0-.9351.6152,2.1853,2.1853,0,0,0-.4718.8881,1.6482,1.6482,0,0,0-1.865-.3038,2.1293,2.1293,0,0,0-1.3492,1.2891h0l-.2451-.5912-.8755.321,1.9844,5.4132Zm9.7675-3.4671a2.2,2.2,0,0,0,1.2951-1.2353,2.0675,2.0675,0,0,0,.3392.5226h0l.97-.3558-.0293-.08a3.2447,3.2447,0,0,1-.6248-1.116h0l-.9133-2.4915a1.7974,1.7974,0,0,0-1.0226-1.0865,2.28,2.28,0,0,0-1.6374.07,2.7968,2.7968,0,0,0-1.0024.6172,2.0918,2.0918,0,0,0-.5613.8839,1.36,1.36,0,0,0-.0006.8885h0l.93-.3412a.7851.7851,0,0,1,.1133-.7282,1.4375,1.4375,0,0,1,.7388-.5546,1.2416,1.2416,0,0,1,.9609-.0259,1.1068,1.1068,0,0,1,.5736.6665h0l.1559.4253-.9006.33a3.2285,3.2285,0,0,0-1.6371,1.1308,1.63,1.63,0,0,0-.1614,1.5489,1.56,1.56,0,0,0,.9337.96A2.0355,2.0355,0,0,0,174.76,179.4332Zm-.16-.855a1.1886,1.1886,0,0,1-.8354.0281.8973.8973,0,0,1-.54-.574q-.3651-.9957,1.336-1.6192h0l.7254-.2659.4072,1.1106a1.45,1.45,0,0,1-.3508.7926A1.7326,1.7326,0,0,1,174.6,178.5782Zm2.2579-7.2011a.5687.5687,0,0,0,.3552-.3.5628.5628,0,0,0,.0025-.4266.582.582,0,0,0-.2794-.3288.5583.5583,0,0,0-.4671-.0047.55.55,0,0,0-.3509.3045.5887.5887,0,0,0,.0018.4307.569.569,0,0,0,.2751.3248A.56.56,0,0,0,176.8581,171.3771Zm2.7735,6.1568-1.9845-5.4132-.9255.3393,1.9844,5.4132Zm2.4864-.9115-2.817-7.6845-.9256.3393,2.8171,7.6845Zm2.0914-.7042a.6068.6068,0,0,0,.3759-.3138.5721.5721,0,0,0,.0064-.4393.6047.6047,0,0,0-.2943-.3461.5959.5959,0,0,0-.4915-.0015.5784.5784,0,0,0-.369.3169.6169.6169,0,0,0,.0041.4525.5481.5481,0,0,0,.7684.3313Zm4.294-1.5231a2.4228,2.4228,0,0,0,.9515-.6325,2.2474,2.2474,0,0,0,.5422-.9593,1.7877,1.7877,0,0,0-.0045-1.0029h0l-.8755.321a1.1248,1.1248,0,0,1-.1351.9008,1.42,1.42,0,0,1-.7555.6174,1.386,1.386,0,0,1-1.2859-.1018,2.489,2.489,0,0,1-.9134-1.3h0l-.0642-.1751a2.54,2.54,0,0,1-.1506-1.6105,1.38,1.38,0,0,1,.907-.9085,1.318,1.318,0,0,1,1.0069.014,1.3583,1.3583,0,0,1,.7141.7172h0l.8755-.321a2.0762,2.0762,0,0,0-1.1619-1.18,2.312,2.312,0,0,0-1.7133.0094,2.52,2.52,0,0,0-1.1586.8107,2.3541,2.3541,0,0,0-.4827,1.2609,3.4718,3.4718,0,0,0,.2252,1.5122h0l.0569.1551a3.13,3.13,0,0,0,1.3929,1.7793A2.375,2.375,0,0,0,188.5034,174.3951Zm5.4132-1.9844a2.5526,2.5526,0,0,0,1.1649-.8243,2.4485,2.4485,0,0,0,.507-1.2954,3.4356,3.4356,0,0,0-.2173-1.5293h0l-.0238-.065a3.1369,3.1369,0,0,0-1.4294-1.7859,2.4315,2.4315,0,0,0-2.0692-.11,2.5248,2.5248,0,0,0-1.1467.812,2.4848,2.4848,0,0,0-.511,1.3,3.4052,3.4052,0,0,0,.2118,1.5455h0l.0239.065a3.1205,3.1205,0,0,0,1.4257,1.7759A2.4252,2.4252,0,0,0,193.9166,172.4107Zm-.2769-.7555a1.4238,1.4238,0,0,1-1.3181-.1354,2.466,2.466,0,0,1-.9478-1.2927,2.6771,2.6771,0,0,1-.1519-1.715,1.4156,1.4156,0,0,1,.9057-.9506,1.4311,1.4311,0,0,1,1.3258.1411,2.4616,2.4616,0,0,1,.9519,1.2884,2.6974,2.6974,0,0,1,.1524,1.7006A1.4152,1.4152,0,0,1,193.64,171.6552Zm4.7829-1.01-1.4489-3.9523a1.319,1.319,0,0,1,.9615-1.2321,1.1,1.1,0,0,1,1.5885.757h0l1.3,3.5471.9306-.3411-1.3169-3.5921a1.3293,1.3293,0,0,1,.0918-.9729,1.3066,1.3066,0,0,1,.7427-.6213,1.2432,1.2432,0,0,1,.9959-.0388,1.3237,1.3237,0,0,1,.5834.7708h0l1.31,3.5721.9255-.3393-1.33-3.6271a1.7585,1.7585,0,0,0-2.5025-1.2222,2.2108,2.2108,0,0,0-.9351.6152,2.1837,2.1837,0,0,0-.4718.888,1.6485,1.6485,0,0,0-1.865-.3038,2.129,2.129,0,0,0-1.3492,1.2892h0l-.2451-.5912-.8755.3209,1.9844,5.4132Z" fill="#fff"/><path id="a0f5c84f-e709-4435-8931-ae9f73577ef8" data-name="instagram.com/johnsmith" d="M107.2607,213.08a.5332.5332,0,0,0,.3578-.727.5823.5823,0,0,0-.2795-.3289.559.559,0,0,0-.4671-.0047.55.55,0,0,0-.3509.3046.588.588,0,0,0,.0019.4306.5687.5687,0,0,0,.2751.3248A.5594.5594,0,0,0,107.2607,213.08Zm2.7735,6.1569-1.9844-5.4132-.9255.3393,1.9844,5.4132Zm2.4064-.8822-1.414-3.8573a1.7376,1.7376,0,0,1,.2992-.8248,1.4233,1.4233,0,0,1,.7025-.53,1.1426,1.1426,0,0,1,.9206-.02,1.3274,1.3274,0,0,1,.585.7674h0l1.3131,3.5821.9256-.3393-1.3113-3.5771q-.7248-1.9307-2.4408-1.3015a2.1009,2.1009,0,0,0-1.3349,1.3746h0l-.2794-.6693-.8755.3209,1.9844,5.4132Zm6.7557-2.363a2.5932,2.5932,0,0,0,1.3454-.99,1.4756,1.4756,0,0,0,.1539-1.376,1.3561,1.3561,0,0,0-.4781-.6618,1.7459,1.7459,0,0,0-.8277-.284,5.3183,5.3183,0,0,0-1.2589.0416,3.4761,3.4761,0,0,1-1.0773.026.598.598,0,0,1-.45-.4081.7381.7381,0,0,1,.0743-.68,1.348,1.348,0,0,1,.71-.51,1.2885,1.2885,0,0,1,.9139-.0229.89.89,0,0,1,.5629.5371h0l.9306-.3411a1.6079,1.6079,0,0,0-1.0185-1.0057,2.4086,2.4086,0,0,0-1.6676.0722,2.34,2.34,0,0,0-1.27.9875,1.4955,1.4955,0,0,0-.15,1.332,1.2747,1.2747,0,0,0,.4507.618,1.6909,1.6909,0,0,0,.7938.2765,4.96,4.96,0,0,0,1.2477-.0488,2.8991,2.8991,0,0,1,1.1167-.0036.7258.7258,0,0,1,.4963.4793.6959.6959,0,0,1-.1095.6843,1.59,1.59,0,0,1-.7651.5216,1.54,1.54,0,0,1-1.018.0639,1.0206,1.0206,0,0,1-.6432-.6013h0l-.9255.3393a1.65,1.65,0,0,0,.61.7894,1.9936,1.9936,0,0,0,1.0186.3559A2.9051,2.9051,0,0,0,119.1963,215.9915Zm4.8728-1.7864a2.8548,2.8548,0,0,0,.6738-.36h0l-.2751-.75a2.3849,2.3849,0,0,1-.4183.2214.6062.6062,0,0,1-.52.0062.7988.7988,0,0,1-.3139-.4383h0l-1.2306-3.357,1.0106-.37-.2623-.7154-1.0106.3705-.4805-1.3108-.9255.3393.4805,1.3108-.9856.3613.2623.7154.9856-.3613,1.2306,3.357a1.717,1.717,0,0,0,.7058.95A1.2278,1.2278,0,0,0,124.0691,214.2051Zm3.4371-1.26a2.1993,2.1993,0,0,0,1.2951-1.2352,2.0694,2.0694,0,0,0,.3392.5226h0l.97-.3558-.0293-.08a3.2447,3.2447,0,0,1-.6248-1.116h0l-.9133-2.4915a1.7974,1.7974,0,0,0-1.0226-1.0865,2.2793,2.2793,0,0,0-1.6374.07,2.7968,2.7968,0,0,0-1.0024.6172,2.0918,2.0918,0,0,0-.5613.8839,1.36,1.36,0,0,0-.0006.8885h0l.93-.3412a.7851.7851,0,0,1,.1133-.7282,1.437,1.437,0,0,1,.7388-.5546,1.2421,1.2421,0,0,1,.9609-.026,1.1073,1.1073,0,0,1,.5736.6666h0l.1559.4253-.9006.33a3.2285,3.2285,0,0,0-1.6371,1.1308,1.63,1.63,0,0,0-.1614,1.5489,1.56,1.56,0,0,0,.9337.96A2.0351,2.0351,0,0,0,127.5062,212.9451Zm-.16-.8549a1.1883,1.1883,0,0,1-.8353.0281.8972.8972,0,0,1-.54-.574q-.3651-.9957,1.336-1.6192h0l.7254-.2659.4072,1.1106a1.45,1.45,0,0,1-.3508.7926A1.7326,1.7326,0,0,1,127.346,212.09Zm6.8633.7018a2.4478,2.4478,0,0,0,1.4515-1.2188,2.3453,2.3453,0,0,0,.0158-1.8843h0l-1.9367-5.2831-.8455.31.1751.6169a2.1493,2.1493,0,0,0-3.0794,1.1828,3.3881,3.3881,0,0,0,.1528,2.2282,3.5632,3.5632,0,0,0,1.3527,1.8708,1.9692,1.9692,0,0,0,1.819.2014,2.0257,2.0257,0,0,0,1.2811-1.196h0l.1706.4652a1.5479,1.5479,0,0,1,.0147,1.2091,1.51,1.51,0,0,1-.9137.7663,1.9277,1.9277,0,0,1-1.7255-.2017h0l-.2767.7314a2.1017,2.1017,0,0,0,1.1068.3718A2.9652,2.9652,0,0,0,134.2093,212.792Zm-.9525-2.846a1.2985,1.2985,0,0,1-1.2423-.1376,2.5854,2.5854,0,0,1-.9025-1.3008,2.8155,2.8155,0,0,1-.19-1.6953,1.31,1.31,0,0,1,.8631-.9123,1.4606,1.4606,0,0,1,1.56.3078h0l.906,2.4714A1.4439,1.4439,0,0,1,133.2568,209.946Zm4.7889-.978-1.4085-3.8423a1.2991,1.2991,0,0,1,.9514-1.2285,2.9573,2.9573,0,0,1,.4681-.1318h0l-.3154-.8605a1.0066,1.0066,0,0,0-.4359.08,1.5352,1.5352,0,0,0-1.0249,1.1986h0l-.2442-.62-.9006.33,1.9845,5.4132Zm4.2492-1.4442a2.1994,2.1994,0,0,0,1.2951-1.2353,2.0705,2.0705,0,0,0,.3392.5227h0l.97-.3558-.0293-.08a3.2427,3.2427,0,0,1-.6248-1.116h0l-.9133-2.4915a1.7976,1.7976,0,0,0-1.0226-1.0865,2.28,2.28,0,0,0-1.6374.07,2.7968,2.7968,0,0,0-1.0024.6172,2.0921,2.0921,0,0,0-.5613.884,1.36,1.36,0,0,0-.0006.8884h0l.93-.3411a.7853.7853,0,0,1,.1133-.7283,1.4375,1.4375,0,0,1,.7388-.5546,1.242,1.242,0,0,1,.9609-.0259,1.1067,1.1067,0,0,1,.5736.6666h0l.1559.4252-.9006.33a3.2285,3.2285,0,0,0-1.6371,1.1308,1.63,1.63,0,0,0-.1614,1.549,1.56,1.56,0,0,0,.9337.96A2.035,2.035,0,0,0,142.2949,207.5238Zm-.16-.855a1.1883,1.1883,0,0,1-.8353.0281.897.897,0,0,1-.54-.574q-.3651-.9955,1.336-1.6192h0l.7254-.2659.4072,1.1106a1.45,1.45,0,0,1-.3508.7926A1.7326,1.7326,0,0,1,142.1347,206.6688Zm4.9463-1.0131-1.4489-3.9523a1.319,1.319,0,0,1,.9615-1.2321,1.1,1.1,0,0,1,1.5885.757h0l1.3,3.5471.9306-.3411-1.3169-3.5922a1.33,1.33,0,0,1,.0917-.9728,1.3072,1.3072,0,0,1,.7428-.6213,1.2432,1.2432,0,0,1,.9959-.0388,1.3237,1.3237,0,0,1,.5834.7708h0l1.31,3.5721.9255-.3393-1.33-3.6271a1.7585,1.7585,0,0,0-2.5025-1.2222,2.21,2.21,0,0,0-.9351.6152,2.1831,2.1831,0,0,0-.4718.888,1.6484,1.6484,0,0,0-1.865-.3038,2.129,2.129,0,0,0-1.3492,1.2892h0l-.2451-.5912-.8755.3209,1.9844,5.4132Zm8.67-3.116a.6067.6067,0,0,0,.3759-.3137.5717.5717,0,0,0,.0063-.4393.6045.6045,0,0,0-.2943-.3462.5961.5961,0,0,0-.4914-.0014.5789.5789,0,0,0-.3691.3169.6174.6174,0,0,0,.0042.4525.5481.5481,0,0,0,.7684.3312Zm4.294-1.523a2.4216,2.4216,0,0,0,.9514-.6326,2.2461,2.2461,0,0,0,.5422-.9592,1.7877,1.7877,0,0,0-.0044-1.0029h0l-.8755.3209a1.125,1.125,0,0,1-.1352.9009,1.42,1.42,0,0,1-.7554.6174,1.3862,1.3862,0,0,1-1.2859-.1018,2.489,2.489,0,0,1-.9134-1.3h0l-.0642-.1751a2.54,2.54,0,0,1-.1506-1.6105,1.38,1.38,0,0,1,.907-.9086,1.3182,1.3182,0,0,1,1.0068.014,1.3587,1.3587,0,0,1,.7141.7172h0l.8755-.3209a2.0755,2.0755,0,0,0-1.1619-1.18,2.3125,2.3125,0,0,0-1.7133.01,2.52,2.52,0,0,0-1.1585.8106,2.3532,2.3532,0,0,0-.4827,1.2609,3.47,3.47,0,0,0,.2252,1.5122h0l.0568.1551a3.13,3.13,0,0,0,1.3929,1.7794A2.3752,2.3752,0,0,0,160.0453,201.0167Zm5.4132-1.9845a2.5529,2.5529,0,0,0,1.1649-.8243,2.4476,2.4476,0,0,0,.5069-1.2953,3.4353,3.4353,0,0,0-.2172-1.5293h0l-.0239-.065a3.1364,3.1364,0,0,0-1.4293-1.7859,2.4316,2.4316,0,0,0-2.0692-.11,2.5242,2.5242,0,0,0-1.1467.812,2.4837,2.4837,0,0,0-.511,1.3,3.4048,3.4048,0,0,0,.2118,1.5454h0l.0238.0651a3.1211,3.1211,0,0,0,1.4257,1.7758A2.4254,2.4254,0,0,0,165.4585,199.0322Zm-.277-.7554a1.4239,1.4239,0,0,1-1.318-.1354,2.4668,2.4668,0,0,1-.9478-1.2927,2.6772,2.6772,0,0,1-.152-1.715,1.4153,1.4153,0,0,1,.9058-.9506,1.4314,1.4314,0,0,1,1.3258.141,2.4631,2.4631,0,0,1,.9519,1.2884,2.6968,2.6968,0,0,1,.1523,1.7007A1.4152,1.4152,0,0,1,165.1815,198.2768Zm4.783-1.01-1.4489-3.9523a1.3189,1.3189,0,0,1,.9615-1.2322,1.1,1.1,0,0,1,1.5885.7571h0l1.3,3.5471.93-.3412-1.3168-3.5921a1.3294,1.3294,0,0,1,.0917-.9729,1.3077,1.3077,0,0,1,.7427-.6213,1.2437,1.2437,0,0,1,.996-.0387,1.3238,1.3238,0,0,1,.5834.7708h0l1.3095,3.5721.9255-.3393-1.33-3.6272a1.7586,1.7586,0,0,0-2.5025-1.2222,2.212,2.212,0,0,0-.935.6152,2.1855,2.1855,0,0,0-.4719.8881,1.6483,1.6483,0,0,0-1.865-.3038,2.13,2.13,0,0,0-1.3492,1.2891h0l-.2451-.5911-.8755.3209,1.9844,5.4132Zm8.4741-2.3971.1372-9.0229-.79.29-.1422,9.0247Zm1.9652-8.6034a.5687.5687,0,0,0,.3552-.3.5625.5625,0,0,0,.0025-.4265.5822.5822,0,0,0-.2794-.3289.5587.5587,0,0,0-.4671-.0047.5387.5387,0,0,0-.345.3052.5912.5912,0,0,0,.0009.4282.5753.5753,0,0,0,.2726.3257A.5517.5517,0,0,0,180.4038,186.2664Zm2.1841,8.853q1.4159-.519.8436-2.08h0l-2.2136-6.0385-.9256.3393,2.221,6.0585a.8826.8826,0,0,1,.0511.6425.67.67,0,0,1-.4114.3409,1.9017,1.9017,0,0,1-.4349.114h0l.2715.74A1.83,1.83,0,0,0,182.5879,195.1194Zm4.3632-3.9661a2.5526,2.5526,0,0,0,1.1649-.8243,2.4485,2.4485,0,0,0,.507-1.2954,3.4356,3.4356,0,0,0-.2173-1.5293h0l-.0238-.065a3.1369,3.1369,0,0,0-1.4294-1.7859,2.4313,2.4313,0,0,0-2.0691-.11,2.5245,2.5245,0,0,0-1.1468.812,2.4848,2.4848,0,0,0-.511,1.3,3.404,3.404,0,0,0,.2119,1.5455h0l.0238.065a3.1205,3.1205,0,0,0,1.4257,1.7759A2.4252,2.4252,0,0,0,186.9511,191.1533Zm-.2769-.7555a1.4238,1.4238,0,0,1-1.3181-.1354,2.4666,2.4666,0,0,1-.9478-1.2927,2.6771,2.6771,0,0,1-.1519-1.715,1.4156,1.4156,0,0,1,.9057-.9506,1.4311,1.4311,0,0,1,1.3258.1411,2.4616,2.4616,0,0,1,.9519,1.2884,2.6974,2.6974,0,0,1,.1524,1.7006A1.4152,1.4152,0,0,1,186.6742,190.3978Zm4.7879-1.0117-1.414-3.8573a1.7376,1.7376,0,0,1,.2992-.8248,1.4233,1.4233,0,0,1,.7025-.53,1.1426,1.1426,0,0,1,.9206-.02,1.3274,1.3274,0,0,1,.585.7674h0l1.3131,3.5821.9256-.3393-1.3113-3.5771q-.7248-1.9307-2.4408-1.3015a2.0955,2.0955,0,0,0-1.324,1.3423h0l-1.0729-2.9267-.9256.3393,2.8171,7.6845Zm5.6433-2.0688-1.414-3.8573a1.7368,1.7368,0,0,1,.2992-.8247,1.4221,1.4221,0,0,1,.7025-.53,1.1421,1.1421,0,0,1,.9207-.02,1.3271,1.3271,0,0,1,.5849.7673h0l1.3132,3.5822.9255-.3393-1.3113-3.5771q-.7248-1.9307-2.4408-1.3016a2.1009,2.1009,0,0,0-1.3349,1.3747h0l-.2794-.6694-.8755.3209,1.9844,5.4132Zm6.7557-2.363a2.5932,2.5932,0,0,0,1.3454-.99,1.4755,1.4755,0,0,0,.1539-1.3759,1.3564,1.3564,0,0,0-.4781-.6619,1.7448,1.7448,0,0,0-.8277-.2839,5.3123,5.3123,0,0,0-1.2589.0415,3.4761,3.4761,0,0,1-1.0773.026.5981.5981,0,0,1-.45-.4081.7381.7381,0,0,1,.0743-.68,1.3479,1.3479,0,0,1,.71-.51,1.2876,1.2876,0,0,1,.9138-.0228.89.89,0,0,1,.563.5371h0l.93-.3412a1.6081,1.6081,0,0,0-1.0185-1.0057,2.4092,2.4092,0,0,0-1.6676.0722,2.3409,2.3409,0,0,0-1.27.9875,1.4955,1.4955,0,0,0-.15,1.332,1.2753,1.2753,0,0,0,.4507.618,1.6913,1.6913,0,0,0,.7938.2765,4.9643,4.9643,0,0,0,1.2477-.0487,2.895,2.895,0,0,1,1.1167-.0036.7254.7254,0,0,1,.4963.4792.6959.6959,0,0,1-.1095.6843,1.5891,1.5891,0,0,1-.7651.5216,1.54,1.54,0,0,1-1.018.0639,1.0206,1.0206,0,0,1-.6432-.6013h0l-.9255.3393a1.65,1.65,0,0,0,.61.7894,1.9936,1.9936,0,0,0,1.0186.3559A2.9051,2.9051,0,0,0,203.8611,184.9543Zm4.1758-1.6443-1.4489-3.9523a1.3191,1.3191,0,0,1,.9615-1.2322,1.1,1.1,0,0,1,1.5885.7571h0l1.3,3.547.93-.3411-1.3168-3.5921a1.3294,1.3294,0,0,1,.0917-.9729,1.3077,1.3077,0,0,1,.7427-.6213,1.2442,1.2442,0,0,1,.996-.0388,1.3243,1.3243,0,0,1,.5834.7709h0l1.3095,3.5721.9255-.3393-1.33-3.6272a1.7586,1.7586,0,0,0-2.5025-1.2222,2.212,2.212,0,0,0-.935.6152,2.1855,2.1855,0,0,0-.4719.8881,1.6482,1.6482,0,0,0-1.865-.3038,2.13,2.13,0,0,0-1.3492,1.2891h0l-.2451-.5912-.8755.321,1.9844,5.4132Zm6.2918-9.48a.5692.5692,0,0,0,.3553-.3.563.563,0,0,0,.0025-.4265.582.582,0,0,0-.2795-.3289.5587.5587,0,0,0-.4671-.0047.55.55,0,0,0-.3509.3045.5887.5887,0,0,0,.0018.4307.5692.5692,0,0,0,.2752.3248A.56.56,0,0,0,214.3287,173.83Zm2.7735,6.1568-1.9844-5.4132-.9255.3393,1.9844,5.4132Zm3.0985-1.0223a2.8615,2.8615,0,0,0,.6737-.3605h0l-.2751-.7505a2.3934,2.3934,0,0,1-.4182.2215.6061.6061,0,0,1-.52.0061.7988.7988,0,0,1-.3139-.4383h0l-1.2306-3.3569,1.0106-.37-.2623-.7154-1.0106.37-.4805-1.3107-.9256.3393.4806,1.3107-.9856.3613.2622.7154.9856-.3613,1.2307,3.357a1.7167,1.7167,0,0,0,.7058.95A1.2278,1.2278,0,0,0,220.2007,178.9644Zm2.6549-1.0868-1.414-3.8573a1.7358,1.7358,0,0,1,.2992-.8247,1.4226,1.4226,0,0,1,.7024-.53,1.1429,1.1429,0,0,1,.9207-.02,1.3274,1.3274,0,0,1,.585.7674h0l1.3131,3.5821.9256-.3393-1.3114-3.5771q-.7248-1.9307-2.4408-1.3015a2.096,2.096,0,0,0-1.324,1.3423h0l-1.0729-2.9267-.9255.3393,2.8171,7.6845Z" fill="#fff"/><path id="a0819333-2777-4863-bfb9-5f7d1170ac25" data-name="twitter.com/johnsmith" d="M115.8779,233.3971a2.8621,2.8621,0,0,0,.6738-.3605h0l-.2751-.75a2.3971,2.3971,0,0,1-.4183.2215.6061.6061,0,0,1-.52.0061.7988.7988,0,0,1-.3139-.4383h0l-1.2306-3.357,1.0106-.37-.2623-.7154-1.0106.37-.48-1.3107-.9255.3393.48,1.3107-.9856.3613.2623.7154.9856-.3613,1.2306,3.357a1.7167,1.7167,0,0,0,.7058.95A1.2278,1.2278,0,0,0,115.8779,233.3971Zm3.5655-1.4206-.2232-4.5719,2.82,3.62.75-.2751-.4085-5.9909-.9255.3393.4761,4.5189-2.8025-3.666-.7454.2732.2248,4.5146-2.5512-3.6618-.92.3375,3.5553,4.8373Zm4.0955-8.6749a.569.569,0,0,0,.3552-.3.5628.5628,0,0,0,.0026-.4266.5823.5823,0,0,0-.2795-.3289.559.559,0,0,0-.4671-.0047.55.55,0,0,0-.3509.3046.5887.5887,0,0,0,.0018.4307.57.57,0,0,0,.2752.3248A.56.56,0,0,0,123.5389,223.3016Zm2.7735,6.1568-1.9844-5.4132-.9256.3393,1.9845,5.4132Zm3.0985-1.0224a2.8542,2.8542,0,0,0,.6737-.3605h0l-.2751-.75a2.3847,2.3847,0,0,1-.4182.2214.6062.6062,0,0,1-.52.0062.7988.7988,0,0,1-.3139-.4383h0l-1.2306-3.357,1.0106-.37-.2623-.7154-1.0106.37-.48-1.3108-.9256.3393.4806,1.3108-.9856.3613.2622.7154.9856-.3613,1.2306,3.357a1.7172,1.7172,0,0,0,.7059.95A1.2278,1.2278,0,0,0,129.4109,228.436Zm3.347-1.2269a2.8615,2.8615,0,0,0,.6737-.3605h0l-.2751-.7505a2.39,2.39,0,0,1-.4183.2215.6059.6059,0,0,1-.52.0061.7983.7983,0,0,1-.3139-.4383h0l-1.2307-3.3569,1.0106-.37-.2622-.7154-1.0106.37-.4805-1.3107-.9256.3393.48,1.3107-.9856.3613.2623.7155.9856-.3614,1.2306,3.357a1.7167,1.7167,0,0,0,.7058.95A1.228,1.228,0,0,0,132.7579,227.2091Zm4.0123-1.4709a2.4213,2.4213,0,0,0,1.6579-1.7939h0l-.7267-.233a2.2215,2.2215,0,0,1-.401.7485,1.7161,1.7161,0,0,1-.7571.5046,1.5661,1.5661,0,0,1-1.3188-.0756,2.0494,2.0494,0,0,1-.9419-1.1217h0l3.6672-1.3444-.1412-.3852a3.2077,3.2077,0,0,0-1.3153-1.7766,2.1594,2.1594,0,0,0-1.8959-.0938,2.3036,2.3036,0,0,0-1.0671.7969,2.557,2.557,0,0,0-.4974,1.3061,3.4611,3.4611,0,0,0,.22,1.5511h0l.0624.17a2.8579,2.8579,0,0,0,1.3992,1.68A2.5188,2.5188,0,0,0,136.77,225.7382Zm-.0247-3.7366-2.7116.994a2.11,2.11,0,0,1,.0512-1.3156,1.3148,1.3148,0,0,1,.791-.7525,1.2379,1.2379,0,0,1,1.0627.05,1.8772,1.8772,0,0,1,.781.9537h0Zm4.0954,2.1308-1.4085-3.8423a1.299,1.299,0,0,1,.9515-1.2284,2.9522,2.9522,0,0,1,.4681-.1319h0l-.3155-.8605a1.0066,1.0066,0,0,0-.4359.08,1.535,1.535,0,0,0-1.0248,1.1986h0l-.2443-.62-.9.33,1.9844,5.4132Zm3.1521-1.0931a.6067.6067,0,0,0,.3759-.3137.5717.5717,0,0,0,.0063-.4393.6052.6052,0,0,0-.2943-.3462.5961.5961,0,0,0-.4914-.0014.5786.5786,0,0,0-.3691.3169.6174.6174,0,0,0,.0042.4525.5481.5481,0,0,0,.7684.3312Zm4.294-1.523a2.4216,2.4216,0,0,0,.9514-.6326,2.2461,2.2461,0,0,0,.5422-.9592,1.7877,1.7877,0,0,0-.0044-1.0029h0l-.8755.3209a1.125,1.125,0,0,1-.1352.9009,1.42,1.42,0,0,1-.7554.6174,1.3862,1.3862,0,0,1-1.2859-.1018,2.49,2.49,0,0,1-.9135-1.3h0l-.0641-.1751a2.54,2.54,0,0,1-.1506-1.6105,1.38,1.38,0,0,1,.907-.9086,1.3182,1.3182,0,0,1,1.0068.014,1.3587,1.3587,0,0,1,.7141.7172h0l.8755-.3209a2.0755,2.0755,0,0,0-1.1619-1.18,2.3125,2.3125,0,0,0-1.7133.01,2.52,2.52,0,0,0-1.1585.8106,2.3532,2.3532,0,0,0-.4827,1.2609,3.47,3.47,0,0,0,.2252,1.5122h0l.0568.1551a3.13,3.13,0,0,0,1.3929,1.7794A2.3752,2.3752,0,0,0,148.287,221.5163Zm5.4132-1.9845a2.5529,2.5529,0,0,0,1.1649-.8243,2.4476,2.4476,0,0,0,.5069-1.2953,3.4354,3.4354,0,0,0-.2173-1.5293h0l-.0238-.065a3.1368,3.1368,0,0,0-1.4293-1.7859,2.4316,2.4316,0,0,0-2.0692-.11,2.5237,2.5237,0,0,0-1.1467.812,2.4846,2.4846,0,0,0-.5111,1.3,3.4063,3.4063,0,0,0,.2119,1.5454h0l.0238.0651a3.1211,3.1211,0,0,0,1.4257,1.7758A2.4254,2.4254,0,0,0,153.7,219.5318Zm-.277-.7554a1.4239,1.4239,0,0,1-1.318-.1354,2.4668,2.4668,0,0,1-.9478-1.2927,2.6772,2.6772,0,0,1-.152-1.715,1.4153,1.4153,0,0,1,.9058-.9506,1.4314,1.4314,0,0,1,1.3258.141,2.4624,2.4624,0,0,1,.9518,1.2884,2.6962,2.6962,0,0,1,.1524,1.7007A1.4152,1.4152,0,0,1,153.4232,218.7764Zm4.783-1.01-1.4489-3.9523a1.319,1.319,0,0,1,.9614-1.2322,1.1,1.1,0,0,1,1.5886.7571h0l1.3,3.5471.93-.3412-1.3168-3.5921a1.3294,1.3294,0,0,1,.0917-.9729,1.3077,1.3077,0,0,1,.7427-.6213,1.2437,1.2437,0,0,1,.996-.0387,1.3233,1.3233,0,0,1,.5833.7708h0l1.31,3.5721.9256-.3393-1.33-3.6272a1.7586,1.7586,0,0,0-2.5025-1.2222,2.212,2.212,0,0,0-.935.6152,2.1843,2.1843,0,0,0-.4719.8881,1.6482,1.6482,0,0,0-1.865-.3038,2.1293,2.1293,0,0,0-1.3492,1.2891h0l-.2451-.5912-.8755.321,1.9844,5.4132Zm8.4741-2.3971.1372-9.0229-.7905.29-.1422,9.0247Zm1.9652-8.6034a.5687.5687,0,0,0,.3552-.3.563.563,0,0,0,.0025-.4265.5823.5823,0,0,0-.2795-.3289.5584.5584,0,0,0-.467-.0047.5387.5387,0,0,0-.345.3052.5912.5912,0,0,0,.0009.4282.5753.5753,0,0,0,.2726.3257A.5517.5517,0,0,0,168.6455,206.766Zm2.1841,8.853q1.4159-.519.8436-2.08h0l-2.2137-6.0385-.9255.3393,2.221,6.0585a.8826.8826,0,0,1,.0511.6425.67.67,0,0,1-.4114.3409,1.9017,1.9017,0,0,1-.4349.114h0l.2714.74A1.83,1.83,0,0,0,170.83,215.619Zm4.3632-3.9661a2.5526,2.5526,0,0,0,1.1649-.8243,2.4485,2.4485,0,0,0,.507-1.2954,3.4356,3.4356,0,0,0-.2173-1.5293h0l-.0239-.065a3.1364,3.1364,0,0,0-1.4293-1.7859,2.4315,2.4315,0,0,0-2.0692-.11,2.5248,2.5248,0,0,0-1.1467.812,2.4848,2.4848,0,0,0-.511,1.3,3.4052,3.4052,0,0,0,.2118,1.5455h0l.0239.065a3.1205,3.1205,0,0,0,1.4257,1.7759A2.4252,2.4252,0,0,0,175.1928,211.6529Zm-.2769-.7555a1.4238,1.4238,0,0,1-1.3181-.1354,2.466,2.466,0,0,1-.9478-1.2927,2.6771,2.6771,0,0,1-.1519-1.715,1.4156,1.4156,0,0,1,.9057-.9506,1.4311,1.4311,0,0,1,1.3258.1411,2.4616,2.4616,0,0,1,.9519,1.2884,2.6974,2.6974,0,0,1,.1524,1.7006A1.4152,1.4152,0,0,1,174.9159,210.8974Zm4.7879-1.0117-1.414-3.8573a1.7376,1.7376,0,0,1,.2992-.8248,1.4235,1.4235,0,0,1,.7024-.53,1.1425,1.1425,0,0,1,.9207-.02,1.3274,1.3274,0,0,1,.585.7674h0l1.3131,3.5821.9256-.3393-1.3114-3.5771q-.7246-1.9306-2.4407-1.3015a2.0955,2.0955,0,0,0-1.324,1.3423h0l-1.0729-2.9267-.9256.3393,2.8171,7.6845Zm5.6433-2.0688-1.414-3.8573a1.7368,1.7368,0,0,1,.2992-.8247,1.4221,1.4221,0,0,1,.7025-.53,1.1418,1.1418,0,0,1,.9206-.02,1.3268,1.3268,0,0,1,.585.7673h0l1.3131,3.5821.9256-.3392-1.3113-3.5771q-.7248-1.9307-2.4408-1.3016a2.1009,2.1009,0,0,0-1.3349,1.3747h0l-.2794-.6694-.8755.3209,1.9844,5.4132Zm6.7557-2.363a2.5932,2.5932,0,0,0,1.3454-.99,1.4755,1.4755,0,0,0,.1539-1.3759,1.3564,1.3564,0,0,0-.4781-.6619,1.7448,1.7448,0,0,0-.8277-.2839,5.3123,5.3123,0,0,0-1.2589.0415,3.4761,3.4761,0,0,1-1.0773.026.598.598,0,0,1-.45-.4081.7381.7381,0,0,1,.0743-.68,1.348,1.348,0,0,1,.71-.51,1.2879,1.2879,0,0,1,.9139-.0228.89.89,0,0,1,.5629.5371h0l.9306-.3412a1.6081,1.6081,0,0,0-1.0185-1.0057,2.4092,2.4092,0,0,0-1.6676.0722,2.3409,2.3409,0,0,0-1.27.9875,1.4955,1.4955,0,0,0-.15,1.332,1.2747,1.2747,0,0,0,.4507.618,1.6909,1.6909,0,0,0,.7938.2765,4.9643,4.9643,0,0,0,1.2477-.0487,2.895,2.895,0,0,1,1.1167-.0036.7254.7254,0,0,1,.4963.4792.6959.6959,0,0,1-.1095.6843,1.5891,1.5891,0,0,1-.7651.5216,1.54,1.54,0,0,1-1.018.0639,1.0206,1.0206,0,0,1-.6432-.6013h0l-.9255.3393a1.65,1.65,0,0,0,.61.7894,1.9936,1.9936,0,0,0,1.0186.3559A2.9051,2.9051,0,0,0,192.1028,205.4539Zm4.1758-1.6443-1.4489-3.9524a1.3189,1.3189,0,0,1,.9614-1.2321,1.1,1.1,0,0,1,1.5886.7571h0l1.3,3.547.93-.3411-1.3168-3.5921a1.3294,1.3294,0,0,1,.0917-.9729,1.3077,1.3077,0,0,1,.7427-.6213,1.2442,1.2442,0,0,1,.996-.0388,1.3239,1.3239,0,0,1,.5833.7708h0l1.3095,3.5721.9256-.3392-1.33-3.6272a1.7586,1.7586,0,0,0-2.5025-1.2222,2.212,2.212,0,0,0-.935.6152,2.1843,2.1843,0,0,0-.4719.8881,1.6482,1.6482,0,0,0-1.865-.3038,2.1293,2.1293,0,0,0-1.3492,1.2891h0l-.2451-.5912-.8755.321,1.9844,5.4132Zm6.2918-9.48a.5687.5687,0,0,0,.3552-.3.5628.5628,0,0,0,.0026-.4266.5821.5821,0,0,0-.28-.3288.5587.5587,0,0,0-.4671-.0047.55.55,0,0,0-.3509.3045.5887.5887,0,0,0,.0018.4307.57.57,0,0,0,.2752.3248A.56.56,0,0,0,202.57,194.33Zm2.7735,6.1568-1.9844-5.4132-.9256.3393,1.9845,5.4132Zm3.0985-1.0223a2.8615,2.8615,0,0,0,.6737-.3605h0l-.2751-.75a2.3934,2.3934,0,0,1-.4182.2215.6061.6061,0,0,1-.52.0061.7988.7988,0,0,1-.3139-.4383h0l-1.2306-3.357,1.0106-.37-.2623-.7154-1.0106.37-.4805-1.3107-.9256.3393.4806,1.3107-.9856.3613.2622.7154.9856-.3613,1.2306,3.357a1.7172,1.7172,0,0,0,.7059.95A1.2278,1.2278,0,0,0,208.4424,199.464Zm2.6549-1.0868-1.414-3.8573a1.7365,1.7365,0,0,1,.2992-.8248,1.423,1.423,0,0,1,.7024-.53,1.1429,1.1429,0,0,1,.9207-.02,1.3273,1.3273,0,0,1,.5849.7674h0l1.3132,3.5821.9255-.3393-1.3113-3.5771q-.7248-1.9306-2.4408-1.3015a2.0958,2.0958,0,0,0-1.324,1.3423h0l-1.0729-2.9267-.9255.3393,2.817,7.6845Z" fill="#fff"/></g><g id="ed62cc46-dcb1-43af-80ea-e17e515bd262" data-name="default"><rect id="e46822d8-ed28-4c0a-84f5-e7d9797b8ab2" data-name="Rectangle" x="213.322" y="146.391" width="259.4975" height="170.5732" rx="19.3617" fill="#ff4d4d"/></g><path d="M213.322,165.7527v56.47l113.7011-42.7538a19.3616,19.3616,0,0,0,11.3081-24.9373l-3.061-8.1405H232.6836A19.3617,19.3617,0,0,0,213.322,165.7527Z" fill="#ba9bff"/><path d="M453.4388,146.4019h-92.35l-14.24,88.7063a19.3617,19.3617,0,0,0,16.0481,22.1859l109.904,17.6435V165.7636A19.3618,19.3618,0,0,0,453.4388,146.4019Z" fill="#ffa2a2" opacity="0.54"/><polygon points="213.047 165.892 191.21 230.34 213.047 222.196 213.047 165.892" fill="#2f3133"/><polygon points="472.885 165.942 472.885 275.116 508.571 281.013 472.885 165.942" fill="#2f3133"/><g id="b23d4304-edcc-47cb-8145-0f1873b3adae" data-name="default-monochrome-black"><path id="e7f481e6-a0fb-4017-acb3-6f5ac0315063" data-name="Shape" d="M275.6833,244.5781l4.4909-25.8011H273.28l-4.3453,11.2211h-.2184l-.17-11.2211h-6.6513L257.38,244.5781h4.3695l2.7188-15.4806h.17l.8253,15.4806H267.6l6.2144-15.4806h.17l-2.7188,15.4806Zm14.832-1.68c1.0681-1.5578,1.6993-3.14,2.8888-9.9067,1.0681-6.2068,1.4079-8.6652,1.4079-10.223,0-3.6754-1.5779-4.43-5.0977-4.43-2.9373,0-4.4424.5355-5.4862,2.1176-1.0924,1.5822-1.6992,3.0913-2.9373,10.1014-1.0438,5.9634-1.3836,8.4949-1.3836,10.0527,0,3.7,1.6507,4.4056,5.122,4.4056C287.9665,245.0162,289.4472,244.5051,290.5153,242.8986Zm-3.18-4.26c-.1942.4381-.534.6085-1.2866.6085-.971,0-1.1166-.3408-1.1166-1.0467a46.7292,46.7292,0,0,1,.9953-6.6693c.971-5.6957,1.238-6.6206,1.5778-7.2778.17-.4382.51-.6329,1.3109-.6329.7282,0,1.0681.1947,1.0681.8763s-.1214,1.9716-1.1409,7.74C287.8936,237.0325,287.6509,237.9574,287.3353,238.639Zm18.5218,4.26c1.0924-1.5578,1.6993-3.14,2.8888-9.9067,1.0923-6.2068,1.4322-8.6652,1.4322-10.223,0-3.6754-1.6022-4.43-5.0978-4.43-2.9615,0-4.4423.5355-5.51,2.1176s-1.6992,3.0913-2.913,10.1014c-1.0438,5.9634-1.3837,8.4949-1.3837,10.0527,0,3.7,1.6507,4.4056,5.1221,4.4056C303.3083,245.0162,304.8133,244.5051,305.8571,242.8986Zm-3.1557-4.26c-.1942.4381-.5341.6085-1.2866.6085-.9953,0-1.1166-.3408-1.1166-1.0467a48.5975,48.5975,0,0,1,.971-6.6693c.9952-5.6957,1.2623-6.6206,1.6021-7.2778.17-.4382.51-.6329,1.2866-.6329.7525,0,1.0924.1947,1.0924.8763s-.1214,1.9716-1.141,7.74C303.26,237.0325,303.017,237.9574,302.7014,238.639Zm19.76,5.9391,4.5152-25.8011h-4.3938l-1.6021,9.3712h-.1942L319.16,218.777h-4.7336l-4.5151,25.8011h4.3937l2.4275-14.2149h.2185l3.01,14.2149Zm28.8388,0,6.5057-25.8011h-4.6608l-4.0782,17.55h-.34l.9467-17.55h-4.855l-5.1948,17.55h-.34l2.0634-17.55H336.565l-2.5,25.8011H340.91l4.4424-15.8214h.34l-1.1409,15.8214Zm15.9486,0,2.2091-25.8011h-8.0836l-7.0155,25.8011h4.855l1.408-5.9635h2.3061l-.6069,5.9635Zm-3.6169-11.1724h-1.8935l2.4032-9.2494h.34Zm16.2642,11.1724.971-5.72h-4.9521l3.52-20.081h-4.7822l-4.5151,25.8011Zm16.507,0v-.17l-1.4322-13.6794,5.6561-11.7809.0242-.17h-5.122l-4.9278,10.8073h-.3156c.0971-.4382.1942-.852.3156-1.4118l1.6507-9.3955h-4.9278l-4.5152,25.8011h4.9278l1.6993-9.6876c.0971-.6328.1942-1.3144.2427-1.8986h.2913l1.0681,11.5862Zm13.0114,0,.9953-5.72h-5.4133l.85-4.8924h5.3405l.9225-5.2089h-5.3405l.8253-4.5274h5.4376l.9467-5.4523H403.734l-4.5152,25.8011Zm16.1429,0c0-3.213.4127-6.2312.4127-8.6653,0-2.215-.1457-2.7505-.7525-3.432l.0485-.2191c1.4808-.8519,2.2333-1.217,2.8887-4.99a28.7081,28.7081,0,0,0,.6069-4.99c0-2.3367-1.19-3.5051-4.3452-3.5051h-7.0155l-4.5152,25.8011h4.7822l1.7721-10.0527h.7525c.437,0,.68.17.68,1.1927,0,.8519-.4855,6.0852-.4855,7.9107a8.9337,8.9337,0,0,0,.0729.9493Zm-5.292-14.8721.9711-5.6227h1.238c.704,0,1.1166.146,1.1166,1.071a9.975,9.975,0,0,1-.3156,2.0689c-.2184,1.5091-.7768,2.4828-1.6506,2.4828Z" fill="#fff"/></g><g opacity="0.29"><g clip-path="url(#ee604800-4c75-4897-ae14-293d65cb9a59)"><path d="M185.4711,176.3879a68.11,68.11,0,0,1,30.5572-34.3374c3.5236-1.9065,7.8554-3.4946,11.41-1.6468,3.53,1.8349,4.7282,6.2355,5.328,10.1686a100.5322,100.5322,0,0,1-16.2568,71.17c-2.2658,3.3084-5.4491,6.82-9.4442,6.4757-3.1611-.2727-5.66-3.0619-6.5433-6.1092s-.4714-6.3072.0763-9.4324a116.4341,116.4341,0,0,1,28.7558-58.2928c5.7577-6.2671,12.5459-12.0794,20.7926-14.1815s18.1718.4781,22.4549,7.8322c2.8762,4.9384,2.8054,10.9983,2.5137,16.7058a352.8866,352.8866,0,0,1-5.6918,47.5838c-1.6353,8.6413-5.371,18.9727-14.0785,20.2084-7.1157,1.01-13.602-5.4753-15.01-12.5231s.98-14.2749,3.8228-20.876a146.2617,146.2617,0,0,1,47.6141-59.7919c5.05-3.7008,11.8812-7.1449,17.228-3.8869,4.3889,2.6743,5.3874,8.5376,5.6193,13.6718a122.4955,122.4955,0,0,1-5.7376,42.9057c-2.2069,6.8651-7.3442,14.8788-14.3972,13.3771-5.02-1.0688-7.7848-6.98-7.08-12.0641s3.9414-9.42,7.2567-13.3382a158.7034,158.7034,0,0,1,57.61-42.8381" fill="none" stroke="#fff" stroke-miterlimit="10" stroke-width="2"/></g></g></svg>